<?xml version="1.0" encoding="UTF-8"?>
<svg width="77px" height="15px" viewBox="0 0 77 15" version="1.1" xmlns="http://www.w3.org/2000/svg" xmlns:xlink="http://www.w3.org/1999/xlink">
    <!-- Generator: Sketch 55.2 (78181) - https://sketchapp.com -->
    <title>Group 40</title>
    <desc>Created with Sketch.</desc>
    <g id="Page-1" stroke="none" stroke-width="1" fill="none" fill-rule="evenodd">
        <g id="Homepage" transform="translate(-183.000000, -7030.000000)">
            <g id="Group-14" transform="translate(0.000000, 6553.000000)">
                <g id="Group-7" transform="translate(170.000000, 332.000000)">
                    <g id="Group-30" transform="translate(0.000000, 0.099991)">
                        <g id="Group-40" transform="translate(13.000001, 145.600008)">
                            <polygon id="Fill-8" fill="#000000" points="56.645191 0.653566937 63.811734 0.653566937 63.811734 2.83666205 59.1701985 2.83666205 59.1701985 5.99556891 63.6362392 5.99556891 63.6362392 8.18017691 59.1701985 8.18017691 59.1701985 11.3602642 63.811734 11.3602642 63.811734 13.5433593 56.645191 13.5433593"></polygon>
                            <polygon id="Fill-10" fill="#000000" points="12.3903886 0.653566937 19.5554187 0.653566937 19.5554187 2.83666205 14.9138831 2.83666205 14.9138831 5.99556891 19.3814367 5.99556891 19.3814367 8.18017691 14.9138831 8.18017691 14.9138831 11.3602642 19.5554187 11.3602642 19.5554187 13.5433593 12.3903886 13.5433593"></polygon>
                            <polygon id="Fill-12" fill="#000000" points="65.8016336 0.653566937 68.6050121 0.653566937 76.6823127 13.5433593 73.9379368 13.5433593"></polygon>
                            <polygon id="Fill-14" fill="#000000" points="73.5188672 0.653566937 76.3509906 0.653566937 73.2450348 5.50388082 71.8395633 3.29506664"></polygon>
                            <polygon id="Fill-16" fill="#000000" points="65.4034419 13.5435106 68.8543358 8.09560656 70.2477042 10.2787017 68.1644596 13.5435106"></polygon>
                            <polygon id="Fill-18" fill="#000000" points="31.8096474 0.653566937 33.5025674 0.653566937 35.6130439 13.6371583 33.12132 13.6371583 31.9987582 5.77922615 28.4994519 13.8096273 27.8156273 13.8096273 24.449455 5.77922615 23.1756046 13.6371583 20.6838807 13.6371583 23.0424706 0.653566937 24.7353905 0.653566937 28.1953618 8.99108404"></polygon>
                            <path d="M1.9168271,2.16796625 C3.21639654,0.816958671 5.09691437,-7.7537976e-13 6.95776468,-7.7537976e-13 C8.06368466,-7.7537976e-13 9.08337011,0.249626261 10.1015427,0.676260233 L10.1015427,4.848801 C9.39956337,3.89114389 8.25733412,3.37524962 7.08182137,3.37524962 C4.99706387,3.37524962 3.58554083,4.97437057 3.55377022,7.01979302 L1.49569246e-12,7.01979302 L1.49569246e-12,6.37832918 C0.151288643,4.80038863 0.813932898,3.31473416 1.9168271,2.16796625" id="Fill-20" fill="#FFFFFF"></path>
                            <path d="M0.0131621119,7.92177591 L3.66829572,7.92177591 C4.00566939,9.56930923 5.33700945,10.6933838 7.19634687,10.6933838 C8.33101169,10.6933838 9.46416362,10.145719 10.191862,9.28186081 L10.191862,13.4241438 C9.03904254,13.7766464 8.206955,14.0414015 7.12524121,14.0414015 C5.2643909,14.0414015 3.4928009,13.3363964 2.11153559,12.0852394 C0.858865625,10.9596519 0.185631165,9.53753862 0.0131621119,7.92177591" id="Fill-22" fill="#000000"></path>
                            <path d="M45.8584621,0.620434724 L49.5665467,0.620434724 C50.9689925,0.620434724 52.1036573,0.948731079 52.8343814,1.5478341 C53.6210824,2.18627218 54.1021802,3.2876535 54.1021802,4.44803739 C54.1021802,5.78240321 53.5439252,6.92311958 52.6029098,7.54037724 C52.1414794,7.83085144 51.8736985,7.94583081 51.1823094,8.08199058 L55.2171775,13.5132529 L52.1233248,13.5132529 L48.6633535,8.33312973 L48.3562376,8.33312973 L48.3562376,13.5132529 L45.8584621,13.5132529 L45.8584621,0.620434724 Z M48.3562376,2.66888295 L48.3562376,6.55397529 L49.0688071,6.55397529 C50.6633894,6.55397529 51.5272475,5.87771506 51.5272475,4.6023518 C51.5272475,3.32698854 50.7012116,2.66888295 49.1051164,2.66888295 L48.3562376,2.66888295 Z" id="Fill-6" fill="#000000"></path>
                            <polygon id="Fill-4" fill="#000000" points="35.8119885 0.653566937 44.1056319 0.653566937 44.1056319 2.83666205 41.2054286 2.83666205 41.2054286 13.5433593 38.6925242 13.5433593 38.6925242 2.83666205 35.8119885 2.83666205"></polygon>
                        </g>
                    </g>
                </g>
            </g>
        </g>
    </g>
</svg>