<svg width="233" height="25" viewBox="0 0 233 25" xmlns="http://www.w3.org/2000/svg" xmlns:xlink="http://www.w3.org/1999/xlink">
    <defs>
        <path id="k7j6p5x2ta" d="M0 0h23.797v12.059H0z"/>
        <path id="dz071h2iuc" d="M0 0h17.776v25H0z"/>
    </defs>
    <g fill="none" fill-rule="evenodd">
        <path d="M131.31.411v4.73H118.5v14.743h12.808v4.73h-17.994V.412h17.994zm-.593 9.53v4.661h-11.304V9.941h11.304zM43.626.41v4.73H30.817v14.743h12.809v4.73H25.632V.412h17.994zm-.592 9.53v4.661H31.73V9.941h11.305zM70.984.41v4.73H90.16V.411H70.985zm6.995 24.204h5.186V6.045H77.98v18.57zM24.082 15.92h-5.695l-.125.297a7.726 7.726 0 0 1-1.137 1.937 5.373 5.373 0 0 1-1.993 1.54l-.037.016a5.9 5.9 0 0 1-.125.052l-.079.031-.062.023c-.075.028-.151.054-.228.078l-.015.005a6.155 6.155 0 0 1-1.256.252 7.71 7.71 0 0 1-1.544 0c-.063-.006-.126-.014-.19-.023l-.123-.018a6.33 6.33 0 0 1-.652-.133c-2.368-.62-3.964-2.094-4.812-4.356a8.392 8.392 0 0 1-.518-2.624H.003c.042 1.126.234 2.214.557 3.244.462 1.631 1.222 3.114 2.332 4.422.095.112.192.221.29.329l.08.088c.056.06.113.118.17.177l.064.066.09.09a11.81 11.81 0 0 0 3.294 2.306l.06.028.095.045.029.013c.435.2.88.372 1.332.52l.104.033.067.021c.354.111.711.207 1.073.287.914.213 1.867.326 2.846.326l.076-.001h.285a13.065 13.065 0 0 0 3.23-.437l.105-.028c.147-.04.294-.082.44-.128 1.67-.522 3.143-1.378 4.386-2.6a10.865 10.865 0 0 0 1.497-1.828 11.22 11.22 0 0 1-.188.245c.8-1.163 1.35-2.458 1.688-3.867.032-.136.05-.276.077-.428m82.277-.051c2.895-1.35 4.813-4.117 4.813-7.577 0-5.052-4.045-7.89-9.347-7.89H91.711v10.826h5.196V5.143h4.012c3.522 0 5.092 1.072 5.092 3.425 0 2.318-1.605 3.564-5.092 3.564H91.71v12.491h5.196v-7.785h4.151l4.813 7.785h5.895l-5.407-8.754zM139.38.406l15.76 24.214h-6.031L133.312.406h6.067zm1.052 12.58 3.025 4.636-4.565 6.997h-6.032l7.572-11.633zM154.687.406l-7.119 10.912-3.025-4.649 4.076-6.263h6.068zM69.434 2.253v22.362h-5.186V12.604l.913-1.731 4.273-8.62zM50.36.411l6.926 13.57L64.248.41h5.186l-5.186 10.462-4.664 8.839H54.99l-4.629-8.84v13.742h-5.185V.411h5.185z" fill="#FFF"/>
        <g transform="translate(0 .034)">
            <mask id="13y8no2sob" fill="#fff">
                <use xlink:href="#k7j6p5x2ta"/>
            </mask>
            <path d="M5.497 12.059c.005-.102.012-.204.02-.306.076-.953.263-1.88.662-2.753.482-1.055 1.107-1.929 1.888-2.604a7.327 7.327 0 0 1 1.085-.753c.712-.39 1.52-.656 2.434-.787a5.91 5.91 0 0 1 .348-.04c.37-.021.749-.012 1.136.027a5.659 5.659 0 0 1 2.881 1.112c.974.732 1.609 1.7 1.979 2.847.026.08.054.16.08.236h5.784c0-.06.007-.11-.001-.157a10.43 10.43 0 0 0-.988-3.067 9.964 9.964 0 0 0-1.418-2.091A12.459 12.459 0 0 0 13.134.017l-.017-.001a13.174 13.174 0 0 0-.25-.01l-.103-.002A17.35 17.35 0 0 0 12.517 0H12.482C7.096.002 2.506 3.408.753 8.181A12.435 12.435 0 0 0 0 12.06h5.497z" fill="#FFF" mask="url(#13y8no2sob)"/>
        </g>
        <path fill="#FFF" d="M157.143 24.62V.415h1.673V22.96h12.408v1.66zM183.515 1.902l-5.96 15.352h11.955l-5.995-15.352zm1.15-1.487 9.516 24.205h-1.708l-2.3-5.706h-13.28l-2.231 5.706h-1.777L182.4.415h2.265zM197.505 22.96h8.226c1.765 0 3.235-.415 4.409-1.245 1.173-.83 1.76-2.11 1.76-3.838 0-.807-.163-1.516-.488-2.127a4.343 4.343 0 0 0-1.307-1.504 5.615 5.615 0 0 0-1.917-.864 9.472 9.472 0 0 0-2.318-.276h-8.365v9.854zm7.668-20.885h-7.668v9.37h7.703c.813 0 1.592-.092 2.335-.276.744-.185 1.389-.472 1.935-.865a4.165 4.165 0 0 0 1.29-1.504c.313-.61.47-1.319.47-2.126 0-.83-.163-1.54-.488-2.127a3.956 3.956 0 0 0-1.307-1.418c-.546-.356-1.191-.622-1.935-.795a10.29 10.29 0 0 0-2.335-.26zm-9.341 22.545V.415h8.923c2.58 0 4.583.536 6.012 1.608 1.43 1.072 2.144 2.588 2.144 4.547 0 1.245-.296 2.334-.889 3.268-.593.934-1.424 1.654-2.492 2.16.743.255 1.377.6 1.9 1.038a5.55 5.55 0 0 1 1.255 1.47c.313.542.54 1.112.68 1.711.139.6.208 1.188.208 1.763 0 2.053-.703 3.672-2.109 4.859-1.406 1.188-3.445 1.78-6.117 1.78h-9.515z"/>
        <g transform="translate(215.224)">
            <mask id="lc4e6bo45d" fill="#fff">
                <use xlink:href="#dz071h2iuc"/>
            </mask>
            <path d="m10.422 13.416-3.138-.553a13.42 13.42 0 0 1-2.544-.726 7.467 7.467 0 0 1-2.143-1.28 6.164 6.164 0 0 1-1.482-1.884C.743 8.247.558 7.412.558 6.466c0-1.014.226-1.924.68-2.732a6.371 6.371 0 0 1 1.812-2.04C3.804 1.141 4.682.721 5.68.432A11.15 11.15 0 0 1 8.783 0c1.79 0 3.335.358 4.636 1.072 1.301.715 2.417 1.545 3.346 2.49L15.58 4.84c-.744-.806-1.673-1.538-2.788-2.196-1.116-.657-2.522-.985-4.218-.985-1.882 0-3.398.45-4.548 1.348-1.15.9-1.726 2.03-1.726 3.389 0 1.383.552 2.484 1.656 3.302 1.104.819 2.48 1.366 4.13 1.643l2.475.415c2.277.369 4.048 1.1 5.315 2.195 1.267 1.096 1.9 2.542 1.9 4.34a6.16 6.16 0 0 1-.558 2.576 5.937 5.937 0 0 1-1.638 2.126c-.72.6-1.62 1.085-2.701 1.453-1.08.368-2.341.553-3.782.553-1.975 0-3.741-.358-5.298-1.072C2.242 23.214.976 22.268 0 21.093l1.185-1.245c.837.922 1.917 1.735 3.242 2.438 1.324.703 2.927 1.054 4.81 1.054 2.09 0 3.747-.484 4.966-1.452 1.22-.968 1.83-2.178 1.83-3.63 0-1.384-.534-2.461-1.603-3.234-1.07-.772-2.405-1.308-4.008-1.608" fill="#FFF" mask="url(#lc4e6bo45d)"/>
        </g>
    </g>
</svg>
