<?xml version="1.0" encoding="UTF-8"?>
<svg width="62px" height="42px" viewBox="0 0 62 42" version="1.1" xmlns="http://www.w3.org/2000/svg" xmlns:xlink="http://www.w3.org/1999/xlink">
    <title>Group 12</title>
    <defs>
        <path d="M44.4396747,0.543262012 C43.8144736,0.543262012 43.3028677,1.05815749 43.3028677,1.68737869 L43.3028677,1.68737869 C43.3028677,2.31659988 43.8144736,2.83149536 44.4396747,2.83149536 L44.4396747,2.83149536 L51.2622252,2.83149536 L51.2622252,25.7189864 L10.3277767,25.7189864 L10.3277767,2.83149536 L17.1503271,2.83149536 C17.7755283,2.83149536 18.2871341,2.31659988 18.2871341,1.68737869 L18.2871341,1.68737869 C18.2871341,1.05815749 17.7755283,0.543262012 17.1503271,0.543262012 L17.1503271,0.543262012 L9.19096961,0.543262012 C8.56491435,0.543262012 8.05330847,1.05815749 8.05330847,1.68737869 L8.05330847,1.68737869 L8.05330847,26.557948 L0.246834887,40.0225938 C0.038434498,40.3767456 0.038434498,40.8142778 0.246834887,41.1675701 L0.246834887,41.1675701 C0.444986076,41.5208623 0.824206456,41.7400582 1.23246623,41.7400582 L1.23246623,41.7400582 L60.3583897,41.7400582 C60.7657954,41.7400582 61.1450158,41.5208623 61.344021,41.1675701 L61.344021,41.1675701 C61.5421722,40.8048223 61.5421722,40.3767456 61.344021,40.0225938 L61.344021,40.0225938 L53.5358393,26.5484925 L53.5358393,1.68737869 C53.5358393,1.05815749 53.0242334,0.543262012 52.3981781,0.543262012 L52.3981781,0.543262012 L44.4396747,0.543262012 Z M9.84521018,28.0080793 L51.7456458,28.0080793 L58.3777319,39.4509653 L3.21141583,39.4509653 L9.84521018,28.0080793 Z" id="path-1"></path>
        <path d="M1.77652791,0.210599989 C1.15218084,0.210599989 0.639720866,0.725495472 0.639720866,1.35471666 L0.639720866,1.35471666 C0.639720866,1.98393785 1.15218084,2.49883334 1.77652791,2.49883334 L1.77652791,2.49883334 L29.0658756,2.49883334 C29.6919308,2.49883334 30.2035367,1.98393785 30.2035367,1.35471666 L30.2035367,1.35471666 C30.2035367,0.725495472 29.6919308,0.210599989 29.0658756,0.210599989 L29.0658756,0.210599989 L1.77652791,0.210599989 Z" id="path-3"></path>
        <path d="M1.20001044,0.489967321 C0.57395517,0.489967321 0.0623492967,1.0048628 0.0623492967,1.63494359 L0.0623492967,1.63494359 C0.0623492967,2.26330519 0.57395517,2.77820067 1.20001044,2.77820067 L1.20001044,2.77820067 L19.3923395,2.77820067 C20.0183947,2.77820067 20.5300006,2.26330519 20.5300006,1.63494359 L20.5300006,1.63494359 C20.5300006,1.0048628 20.0183947,0.489967321 19.3923395,0.489967321 L19.3923395,0.489967321 L1.20001044,0.489967321 Z" id="path-5"></path>
    </defs>
    <g id="Page-1" stroke="none" stroke-width="1" fill="none" fill-rule="evenodd">
        <g id="Homepage---Aug-2020" transform="translate(-684.000000, -1212.000000)">
            <g id="Group-12" transform="translate(684.000000, 1212.000000)">
                <g id="Group-3">
                    <mask id="mask-2" fill="white">
                        <use xlink:href="#path-1"></use>
                    </mask>
                    <g id="Clip-2"></g>
                    <polygon id="Fill-1" fill="#FFFFFF" mask="url(#mask-2)" points="-4.18081928 46.0380172 65.7631342 46.0380172 65.7631342 -3.75469694 -4.18081928 -3.75469694"></polygon>
                </g>
                <g id="Group-6" transform="translate(15.373799, 30.085713)">
                    <mask id="mask-4" fill="white">
                        <use xlink:href="#path-3"></use>
                    </mask>
                    <g id="Clip-5"></g>
                    <polygon id="Fill-4" fill="#FFFFFF" mask="url(#mask-4)" points="-3.63077891 6.79679229 34.4731824 6.79679229 34.4731824 -4.08735897 -3.63077891 -4.08735897"></polygon>
                </g>
                <g id="Group-9" transform="translate(20.498399, 34.383672)">
                    <mask id="mask-6" fill="white">
                        <use xlink:href="#path-5"></use>
                    </mask>
                    <g id="Clip-8"></g>
                    <polygon id="Fill-7" fill="#FFFFFF" mask="url(#mask-6)" points="-4.20729638 7.07615963 24.8005004 7.07615963 24.8005004 -3.80885123 -4.20729638 -3.80885123"></polygon>
                </g>
                <path d="M30.8318126,15.7391257 C28.1695831,15.7391257 26.0778923,13.6339854 26.0778923,10.9554974 C26.0778923,8.27614977 28.1695831,6.17100947 30.8318126,6.17100947 C33.4940422,6.17100947 35.5848789,8.27614977 35.5848789,10.9554974 C35.5848789,13.6339854 33.4940422,15.7391257 30.8318126,15.7391257 M40.3387992,8.94577177 L38.1523033,8.75494239 L37.5817646,7.3194241 L39.0081115,5.59680215 C39.388186,5.21428381 39.2925268,4.5446618 38.9124523,4.16214345 L37.5817646,2.82203985 C37.2016901,2.4395215 36.5354921,2.4395215 36.1554176,2.72662516 L34.4438013,4.25755814 C33.9689218,3.97045448 33.4940422,3.77876551 33.0183085,3.68335083 L32.8278442,1.38738115 C32.7330391,0.813173834 32.2573055,0.429795896 31.7824259,0.429795896 L29.8811994,0.429795896 C29.3106606,0.429795896 28.929732,0.813173834 28.8349269,1.38738115 L28.6444626,3.58793614 C28.1695831,3.77876551 27.6947035,3.97045448 27.2189698,4.25755814 L25.5082076,2.72662516 C25.127279,2.4395215 24.4619352,2.4395215 24.0818607,2.82203985 L22.751173,4.16214345 C22.3702444,4.5446618 22.3702444,5.21428381 22.6555138,5.59680215 L24.1766658,7.3194241 C23.8913964,7.79735714 23.7009321,8.27614977 23.606127,8.75494239 L21.324826,8.94577177 C20.7542873,9.04118646 20.3742128,9.51997909 20.3742128,9.99791212 L20.3742128,11.912223 C20.3742128,12.4855708 20.7542873,12.8689487 21.324826,12.9643634 L23.5113219,13.1560524 L24.0818607,14.5915707 L22.6555138,16.313333 C22.2754393,16.6958514 22.3702444,17.366333 22.751173,17.7488513 L24.0818607,19.0880953 C24.4619352,19.4706137 25.127279,19.4706137 25.5082076,19.18351 L27.2189698,17.6534366 C27.6947035,17.9396807 28.1695831,18.1313697 28.6444626,18.2267843 L28.8349269,20.522754 C28.929732,21.0969613 29.3106606,21.4803393 29.8811994,21.4803393 L31.7824259,21.4803393 C32.3529646,21.4803393 32.7330391,21.0969613 32.8278442,20.522754 L33.0183085,18.322199 C33.4940422,18.1313697 33.9689218,17.9396807 34.4438013,17.7488513 L36.1554176,19.18351 C36.5354921,19.5668879 37.2016901,19.4706137 37.5817646,19.0880953 L38.9124523,17.7488513 C39.2925268,17.366333 39.2925268,16.6958514 39.0081115,16.313333 L37.4869595,14.5915707 C37.7713748,14.112778 37.961839,13.6339854 38.0566441,13.1560524 L40.2439941,12.9643634 C40.8145329,12.8689487 41.1946074,12.4855708 41.1946074,11.912223 L41.1946074,9.99791212 C41.2894125,9.4245644 40.909338,9.04118646 40.3387992,8.94577177" id="Fill-10" fill="#59C82A"></path>
            </g>
        </g>
    </g>
</svg>