<?xml version="1.0" encoding="UTF-8"?>
<svg width="150px" height="16px" viewBox="0 0 150 16" version="1.1" xmlns="http://www.w3.org/2000/svg" xmlns:xlink="http://www.w3.org/1999/xlink">
    <title>Group 34 Copy</title>
    <defs>
        <polygon id="path-1" points="0 0 15.319657 0 15.319657 7.71775041 0 7.71775041"></polygon>
        <polygon id="path-3" points="0 0 11.4437216 0 11.4437216 16 0 16"></polygon>
    </defs>
    <g id="Page-1" stroke="none" stroke-width="1" fill="none" fill-rule="evenodd">
        <g id="Group-34-Copy">
            <polygon id="Fill-1" fill="#000000" points="72.9498154 0.263056914 72.9498154 15.7534653 84.5338872 15.7534653 84.5338872 12.7260645 76.2882551 12.7260645 76.2882551 10.3770212 76.2882551 9.34525908 76.2882551 6.36203395 76.2882551 5.22794418 76.2882551 3.29020806 84.5338872 3.29020806 84.5338872 0.263056914"></polygon>
            <polygon id="Fill-2" fill="#000000" points="76.8752151 9.34525908 84.1528718 9.34525908 84.1528718 6.36203395 76.8752151 6.36203395"></polygon>
            <polygon id="Fill-3" fill="#000000" points="16.5011337 0.263056914 16.5011337 15.7534653 28.0852055 15.7534653 28.0852055 12.7260645 19.8395734 12.7260645 19.8395734 10.3770212 19.8395734 9.34525908 19.8395734 6.36203395 19.8395734 5.22794418 19.8395734 3.29020806 28.0852055 3.29020806 28.0852055 0.263056914"></polygon>
            <polygon id="Fill-4" fill="#000000" points="20.4266852 9.34525908 27.7043419 9.34525908 27.7043419 6.36203395 20.4266852 6.36203395"></polygon>
            <polygon id="Fill-5" fill="#000000" points="45.6977015 0.263031956 45.6977015 3.29043268 49.8413954 3.29043268 50.2012545 3.29043268 53.5396942 3.29043268 53.8324909 3.29043268 58.0435003 3.29043268 58.0435003 0.263031956"></polygon>
            <polygon id="Fill-6" fill="#000000" points="50.2013558 15.7534653 53.5397954 15.7534653 53.5397954 3.86923276 50.2013558 3.86923276"></polygon>
            <g id="Group-33">
                <g id="Group-9" transform="translate(0.000000, 0.021564)">
                    <mask id="mask-2" fill="white">
                        <use xlink:href="#path-1"></use>
                    </mask>
                    <g id="Clip-8"></g>
                    <path d="M3.53901932,7.71775041 C3.54230917,7.65261013 3.54635822,7.58746986 3.55167259,7.52208 C3.60051423,6.91210742 3.72072033,6.31885668 3.97783484,5.76004792 C4.2880931,5.08468548 4.69072026,4.52562715 5.19356134,4.09335525 C5.23481101,4.05891327 5.27656681,4.02497044 5.31933488,3.99202593 C5.50508493,3.84826807 5.69614936,3.72148163 5.89202203,3.61116744 C6.35007052,3.36158783 6.87087925,3.19187369 7.45849726,3.10801494 C7.53340464,3.09728301 7.60805895,3.08904689 7.68271327,3.0828074 C7.92084787,3.06883094 8.16480298,3.07432169 8.41432553,3.09952923 C9.09912068,3.16866278 9.72014334,3.40127098 10.2690423,3.81108071 C10.8961386,4.27954165 11.3045862,4.89899825 11.5427208,5.6330119 C11.5594231,5.68467488 11.5778969,5.73558912 11.5945992,5.78425714 L11.632306,5.78425714 L15.3179515,5.78425714 C15.3179515,5.74632104 15.3222536,5.71437485 15.3171923,5.68392614 C15.2043251,4.99833094 14.999089,4.34193655 14.6812387,3.72073289 C14.4294386,3.22806273 14.1239886,2.7828127 13.7684316,2.382487 C12.4003597,1.00355963 10.5319774,0.115804941 8.45506907,0.0107319234 C8.45152615,0.0104823438 8.44798324,0.0102327642 8.44444032,0.0102327642 C8.39104351,0.00748738843 8.33764669,0.00574033113 8.28399681,0.00399327383 C8.26172705,0.0034941146 8.23945729,0.00274537576 8.21718753,0.00224621653 C8.16429685,0.00124789807 8.1111531,0.000499159229 8.05800935,0.000249579614 C8.05142965,0.000249579614 8.04484995,0 8.03827025,0 C8.03751105,0 8.03649879,0 8.03548653,0 C4.56798351,0.00124789807 1.61344419,2.18107625 0.484772207,5.23593073 C0.459718726,5.3035668 0.435677507,5.37195162 0.412648549,5.44033643 C0.169199571,6.1593753 0.0264706478,6.92383766 -0.000101226187,7.71775041 L0.0527894563,7.71775041 L3.53901932,7.71775041 Z" id="Fill-7" fill="#59C82A" mask="url(#mask-2)"></path>
                </g>
                <path d="M15.5034231,10.188913 L11.8873707,10.188913 L11.8370107,10.188913 C11.8096796,10.2533046 11.7831077,10.3159491 11.7567889,10.3785936 C11.5695205,10.8245923 11.3336634,11.2423886 11.0244174,11.6182555 C10.6896118,12.0250703 10.2953358,12.342286 9.83576895,12.5611673 C9.8046419,12.5758925 9.77351484,12.5903681 9.74188166,12.604095 C9.73378356,12.6078387 9.72568547,12.6110832 9.71758738,12.6145773 C9.69126857,12.6258084 9.66444363,12.6367899 9.63761869,12.6475218 C9.6206633,12.6542605 9.60370792,12.6609991 9.58649946,12.6677378 C9.57334006,12.6727294 9.55967452,12.6774714 9.54626205,12.682463 C9.49817962,12.6999335 9.44933798,12.7166554 9.39999021,12.7323789 C9.3964473,12.7336268 9.39315745,12.7346251 9.3898676,12.7356234 C9.13604293,12.8152393 8.86652821,12.8688989 8.58182956,12.8966023 C8.25006074,12.9285485 7.91727965,12.9312939 7.58778841,12.8971014 C7.54704487,12.8928586 7.5065544,12.8873678 7.46581086,12.8821267 C7.43923898,12.8786326 7.41266711,12.8746393 7.38609523,12.870646 C7.34965381,12.8651553 7.31295931,12.8596645 7.27651789,12.8531754 C7.17276105,12.8347065 7.06925727,12.8122444 6.96625962,12.7855394 C5.44204632,12.3887078 4.4140944,11.4452968 3.86848525,9.99723591 C3.66299609,9.45140529 3.55797392,8.88985116 3.53494497,8.31781468 L0.0517518879,8.31781468 L0.00164492553,8.31781468 C0.0292290614,9.03860061 0.152471943,9.73492773 0.360238691,10.3943171 C0.65784368,11.4383086 1.14727229,12.3874599 1.8616761,13.2245499 C1.92266488,13.2961792 1.98517205,13.365812 2.04818535,13.4346959 C2.06564687,13.453664 2.08310839,13.4723825 2.1005699,13.4913505 C2.13625213,13.5292866 2.1724405,13.5667236 2.20888192,13.6041605 C2.22280052,13.6183865 2.23671912,13.632363 2.25063772,13.646589 C2.2698707,13.6658067 2.28910368,13.6850243 2.30858972,13.7042419 C2.92480413,14.3132162 3.63237517,14.8043889 4.42927832,15.1800062 C4.4419316,15.1859961 4.45458487,15.191986 4.46749121,15.1979759 C4.48798951,15.2074599 4.50798168,15.2174431 4.52873305,15.2266776 C4.53480662,15.2296725 4.54113326,15.2321683 4.5474599,15.2349137 C4.82760337,15.3626985 5.11382041,15.4732622 5.40509876,15.5678529 C5.42736852,15.5750907 5.44963829,15.5823285 5.47190805,15.5893167 C5.48633278,15.5938092 5.50075751,15.5983016 5.51518224,15.602794 C5.74294116,15.6736747 5.97323073,15.7350712 6.20605096,15.7864846 C6.79468124,15.9225055 7.40811193,15.994634 8.03824494,15.994634 C8.0546942,15.994634 8.07089039,15.9941349 8.08708658,15.9941349 C8.09316015,15.9941349 8.09923372,15.9941349 8.10530729,15.9941349 C8.13668741,15.9943845 8.16832059,15.9943845 8.19970071,15.9941349 C8.2232358,15.9941349 8.24677088,15.9938853 8.27055904,15.9936357 C8.94168866,15.9856492 9.60370792,15.9042862 10.2556046,15.7390645 C10.2872377,15.731078 10.3188709,15.7228418 10.3505041,15.7146057 C10.3727739,15.7086158 10.3952967,15.7026259 10.4175665,15.696636 C10.512466,15.6706797 10.6071125,15.6439747 10.7012528,15.6147739 C11.7760219,15.2808363 12.7242582,14.7330091 13.5241981,13.9510762 C13.8956982,13.5876882 14.215826,13.1973457 14.4881245,12.7807973 C14.4486463,12.8334586 14.4084089,12.8856208 14.3674123,12.9372838 C14.8818943,12.1935365 15.236186,11.364433 15.4535692,10.4629515 C15.4745737,10.3758482 15.4859616,10.2862491 15.5034231,10.188913" id="Fill-10" fill="#000000"></path>
                <path d="M68.4717208,10.1561682 C70.3352949,9.29262274 71.5702543,7.52110664 71.5702543,5.30658672 C71.5702543,2.07353239 68.9657046,0.25759112 65.5528637,0.25759112 L59.0412362,0.25759112 L59.0412362,7.18592121 L62.3867616,7.18592121 L62.3867616,3.29148091 L64.9690417,3.29148091 C67.2367613,3.29148091 68.2472517,3.97782485 68.2472517,5.48378824 C68.2472517,6.96728947 67.2142385,7.76469634 64.9690417,7.76469634 L63.1021777,7.76469634 L62.3867616,7.76469634 L59.0412362,7.76469634 L59.0412362,15.7587314 L62.3867616,15.7587314 L62.3867616,10.776124 L65.0588799,10.776124 L68.1574135,15.7587314 L71.9521301,15.7587314 L68.4717208,10.1561682 Z" id="Fill-12" fill="#000000"></path>
                <polygon id="Fill-14" fill="#000000" points="99.8753484 15.7564852 89.7291946 0.259837336 85.8233822 0.259837336 95.9920588 15.7564852"></polygon>
                <polygon id="Fill-16" fill="#000000" points="90.4064231 8.31095124 85.5316231 15.7564103 89.4149126 15.7564103 92.3535088 11.2782033"></polygon>
                <polygon id="Fill-18" fill="#000000" points="95.0010797 7.24344932 99.5835892 0.259962126 95.6777768 0.259962126 93.0532349 4.26846031"></polygon>
                <polygon id="Fill-20" fill="#000000" points="41.36145 8.06628835 41.36145 15.7533405 44.6998897 15.7533405 44.6998897 1.4421958 41.9493211 6.95865402"></polygon>
                <polygon id="Fill-22" fill="#000000" points="44.699915 0.263056914 41.3614753 0.263056914 36.8801921 8.94742917 32.4214316 0.263056914 29.082992 0.263056914 29.082992 1.44207101 29.082992 2.12017882 29.082992 15.7532157 32.4214316 15.7532157 32.4214316 8.07464926 32.4214316 6.95852923 35.4015305 12.6155008 38.3591066 12.6155008 41.3614753 6.95852923"></polygon>
                <polygon id="Fill-24" fill="#929292" points="101.16497 15.756585 101.16497 0.265677499 102.242017 0.265677499 102.242017 14.6943742 110.230281 14.6943742 110.230281 15.756585"></polygon>
                <path d="M118.142828,1.21734953 L114.30585,11.0427998 L122.00233,11.0427998 L118.142828,1.21734953 Z M118.883298,0.265702457 L125.009001,15.75661 L123.909684,15.75661 L122.428745,12.1050106 L113.879181,12.1050106 L112.443288,15.75661 L111.299179,15.75661 L117.424629,0.265702457 L118.883298,0.265702457 Z" id="Fill-26" fill="#929292"></path>
                <path d="M127.148998,14.6943991 L132.444899,14.6943991 C133.581416,14.6943991 134.527628,14.4288464 135.283281,13.897741 C136.038429,13.3666356 136.416509,12.5477649 136.416509,11.4413784 C136.416509,10.9249982 136.311486,10.4712625 136.102201,10.0801712 C135.89241,9.68957912 135.612014,9.36861973 135.260759,9.11754264 C134.908998,8.86696471 134.497766,8.68252537 134.026558,8.56422463 C133.55535,8.44642306 133.058077,8.38752227 132.534231,8.38752227 L127.148998,8.38752227 L127.148998,14.6943991 Z M132.085546,1.3279133 L127.148998,1.3279133 L127.148998,7.32506185 L132.108069,7.32506185 C132.631662,7.32506185 133.132731,7.26616106 133.611531,7.1481099 C134.090078,7.03005874 134.505358,6.84586899 134.856866,6.5947919 C135.208121,6.34396438 135.485228,6.02325458 135.687174,5.63216332 C135.88912,5.24132165 135.990093,4.78783549 135.990093,4.27120569 C135.990093,3.74010027 135.885071,3.28636453 135.675786,2.91024805 C135.466248,2.53388199 135.185851,2.23164108 134.834596,2.00277657 C134.482835,1.77441123 134.067808,1.60444751 133.589008,1.49388374 C133.110208,1.38331997 132.609139,1.3279133 132.085546,1.3279133 L132.085546,1.3279133 Z M126.071952,15.75661 L126.071952,0.265702457 L131.816538,0.265702457 C133.4769,0.265702457 134.767028,0.608624848 135.687174,1.29471921 C136.607067,1.98056399 137.066887,2.95092953 137.066887,4.20481751 C137.066887,5.00147564 136.876329,5.6985515 136.494959,6.2960451 C136.113336,6.89378828 135.578356,7.35476182 134.890524,7.67921532 C135.369071,7.84169165 135.776759,8.06306877 136.113336,8.3430971 C136.450166,8.62362458 136.719175,8.93709658 136.921374,9.28351308 C137.123067,9.63042875 137.269086,9.99556372 137.358924,10.3791676 C137.448763,10.7627715 137.493555,11.1388879 137.493555,11.507517 C137.493555,12.820805 137.040821,13.8570595 136.135859,14.6167799 C135.230644,15.3769994 133.91774,15.75661 132.197907,15.75661 L126.071952,15.75661 Z" id="Fill-28" fill="#929292"></path>
                <g id="Group-32" transform="translate(138.556278, 0.000000)">
                    <mask id="mask-4" fill="white">
                        <use xlink:href="#path-3"></use>
                    </mask>
                    <g id="Clip-31"></g>
                    <path d="M6.70927164,8.58648714 L4.68955616,8.23258324 C4.12091805,8.12925728 3.57530891,7.97451792 3.05146339,7.767866 C2.52787094,7.56121408 2.06779793,7.28842356 1.67175047,6.94874571 C1.27519688,6.60981659 0.957093594,6.20749425 0.717946728,5.74277701 C0.478546797,5.27805977 0.359099897,4.74346023 0.359099897,4.13847925 C0.359099897,3.48932267 0.504865605,2.90680385 0.796650088,2.38992447 C1.08818151,1.87379383 1.47714313,1.43852698 1.96328189,1.08437351 C2.44916758,0.730469615 3.01426277,0.461422791 3.65755519,0.276733876 C4.30059454,0.092544121 4.96640978,-4.99159229e-05 5.65449478,-4.99159229e-05 C6.80619572,-4.99159229e-05 7.80099607,0.22906417 8.63889582,0.686294024 C9.47654252,1.14377346 10.1947423,1.6746293 10.7929891,2.27961028 L10.0299967,3.09823142 C9.55119683,2.58210077 8.95320313,2.11363984 8.23500334,1.69309819 C7.51680355,1.27255654 6.61184144,1.0624105 5.51986395,1.0624105 C4.3081865,1.0624105 3.332113,1.34992622 2.59164344,1.92520723 C1.85117389,2.50073782 1.48093911,3.22376996 1.48093911,4.09405408 C1.48093911,4.97931297 1.83598996,5.68387622 2.54659779,6.20749425 C3.25720562,6.73136186 4.14344088,7.08177164 5.20580971,7.25872359 L6.79910988,7.5242763 C8.26486507,7.76037861 9.40517806,8.22883955 10.2208081,8.92940953 C11.036185,9.63047866 11.4438735,10.5559199 11.4438735,11.7069811 C11.4438735,12.2822621 11.3239204,12.832086 11.0847736,13.3554544 C10.8453736,13.879322 10.4936126,14.3330578 10.0299967,14.716412 C9.56638076,15.1002655 8.98686084,15.4102434 8.29118387,15.6458465 C7.59550691,15.8816993 6.78392596,16 5.85669409,16 C4.58504012,16 3.44776391,15.7711355 2.44562467,15.3141552 C1.44348542,14.8569254 0.628108487,14.2519444 0,13.4992123 L0.762992381,12.7028037 C1.30151569,13.2928099 1.99693959,13.8129338 2.84977022,14.2629259 C3.70234777,14.7129179 4.73460181,14.9377892 5.94627926,14.9377892 C7.29258754,14.9377892 8.35849929,14.6280609 9.14376143,14.0083547 C9.92927664,13.3886485 10.3217812,12.614203 10.3217812,11.6847685 C10.3217812,10.7995096 9.97761214,10.1099211 9.2897802,9.61550389 C8.60144214,9.12158583 7.74127262,8.77841386 6.70927164,8.58648714" id="Fill-30" fill="#929292" mask="url(#mask-4)"></path>
                </g>
            </g>
        </g>
    </g>
</svg>