<svg width="149" height="16" viewBox="0 0 149 16" xmlns="http://www.w3.org/2000/svg" xmlns:xlink="http://www.w3.org/1999/xlink">
    <defs>
        <path id="yo1udn21ca" d="M0 0h15.218v7.718H0z"/>
        <path id="x43itsfr7c" d="M0 0h11.367v16H0z"/>
    </defs>
    <g fill="none" fill-rule="evenodd">
        <path d="M83.97.263V3.29h-8.19v9.436h8.19v3.027H72.463V.263H83.97zm-.378 6.099v2.983h-7.23V6.362h7.23zM27.898.263V3.29h-8.19v9.436h8.19v3.027H16.391V.263h11.507zm-.378 6.099v2.983h-7.23V6.362h7.23zM45.393.263V3.29h12.264V.263H45.393zm4.474 15.49h3.316V3.87h-3.316v11.884zM15.4 10.19h-3.642l-.08.19c-.186.446-.42.863-.727 1.24a3.436 3.436 0 0 1-1.274.985l-.024.01a3.771 3.771 0 0 1-.13.054l-.04.014a3.818 3.818 0 0 1-.958.215c-.33.032-.66.034-.988 0l-.121-.015-.08-.011-.108-.018a4.045 4.045 0 0 1-.308-.067c-1.514-.397-2.535-1.34-3.077-2.789a5.375 5.375 0 0 1-.332-1.68H.001c.028.722.15 1.418.357 2.077a7.46 7.46 0 0 0 1.677 3.04l.052.057a9.1 9.1 0 0 0 .107.113l.042.043.057.057a7.553 7.553 0 0 0 2.145 1.494l.06.029.02.008c.277.128.562.238.851.333l.066.021.043.014c.227.07.455.132.687.183a8.025 8.025 0 0 0 1.82.209h.16l.07-.001a8.349 8.349 0 0 0 1.972-.255l.095-.024.066-.018a8.63 8.63 0 0 0 .282-.082 6.854 6.854 0 0 0 3.762-2.834 7.18 7.18 0 0 1-.12.156 7.343 7.343 0 0 0 1.079-2.474c.02-.087.032-.177.05-.274m52.614-.033c1.851-.863 3.078-2.635 3.078-4.85 0-3.232-2.587-5.048-5.977-5.048h-6.468v6.928h3.323V3.29h2.565c2.253 0 3.256.687 3.256 2.193 0 1.483-1.026 2.28-3.256 2.28h-5.888v7.995h3.323v-4.983h2.654l3.078 4.983h3.77l-3.458-5.603zM89.131.26 99.21 15.756h-3.858L85.252.26h3.879zm.673 8.051 1.934 2.967-2.92 4.478h-3.857l4.843-7.445zM98.92.26l-4.552 6.983-1.935-2.975L95.04.26h3.88zM44.402 1.442v14.311h-3.316V8.066l.584-1.107 2.732-5.517zM32.205.263l4.43 8.684 4.45-8.684h3.317L41.086 6.96l-2.983 5.657h-2.937l-2.96-5.657v8.794h-3.317V.263h3.316z" fill="#FFF"/>
        <g transform="translate(0 .022)">
            <mask id="lglg8fhfqb" fill="#fff">
                <use xlink:href="#yo1udn21ca"/>
            </mask>
            <path d="m3.515 7.718.013-.196c.049-.61.168-1.203.423-1.762.309-.675.708-1.234 1.208-1.667a4.685 4.685 0 0 1 .694-.482 4.551 4.551 0 0 1 1.778-.528c.237-.014.48-.009.727.017.68.069 1.297.301 1.843.711.622.469 1.028 1.088 1.265 1.822.016.052.035.103.051.151h3.698c0-.038.005-.07 0-.1a6.679 6.679 0 0 0-.632-1.963 6.377 6.377 0 0 0-.906-1.339A7.964 7.964 0 0 0 8.229.004L8.162.002A11.086 11.086 0 0 0 8.004 0h-.022A7.993 7.993 0 0 0 .41 5.44 7.964 7.964 0 0 0 0 7.718h3.515z" fill="#59C82A" mask="url(#lglg8fhfqb)"/>
        </g>
        <path fill="#FFF" d="M100.49 15.757V.266h1.07v14.428h7.935v1.063zM117.355 1.217l-3.811 9.826h7.645l-3.834-9.826zm.736-.951 6.085 15.49h-1.092l-1.471-3.651h-8.493l-1.426 3.652h-1.137L116.642.266h1.449zM126.301 14.694h5.26c1.13 0 2.07-.265 2.82-.796s1.126-1.35 1.126-2.457c0-.516-.104-.97-.312-1.36a2.779 2.779 0 0 0-.836-.963 3.59 3.59 0 0 0-1.226-.554 6.053 6.053 0 0 0-1.482-.176h-5.35v6.306zm4.904-13.366h-4.904v5.997h4.926c.52 0 1.018-.059 1.494-.177a3.568 3.568 0 0 0 1.237-.553c.349-.251.624-.572.825-.963.2-.39.3-.844.3-1.36 0-.532-.104-.986-.312-1.362a2.53 2.53 0 0 0-.835-.907 3.825 3.825 0 0 0-1.238-.51 6.576 6.576 0 0 0-1.493-.165zm-5.974 14.429V.266h5.707c1.65 0 2.93.343 3.845 1.029.913.686 1.37 1.656 1.37 2.91 0 .796-.19 1.494-.568 2.091-.38.598-.91 1.059-1.594 1.383.476.163.88.384 1.215.664.334.28.602.594.803.94.2.347.345.713.434 1.096.09.384.134.76.134 1.129 0 1.313-.45 2.35-1.349 3.109-.899.76-2.203 1.14-3.911 1.14h-6.086z"/>
        <g transform="translate(137.633)">
            <mask id="yrobpoz3gd" fill="#fff">
                <use xlink:href="#x43itsfr7c"/>
            </mask>
            <path d="m6.665 8.586-2.007-.353a8.576 8.576 0 0 1-1.627-.465 4.774 4.774 0 0 1-1.37-.82 3.945 3.945 0 0 1-.948-1.205c-.238-.465-.356-1-.356-1.605C.357 3.49.5 2.907.79 2.39c.29-.516.676-.951 1.16-1.306A5.312 5.312 0 0 1 3.632.277 7.125 7.125 0 0 1 5.617 0C6.76 0 7.749.23 8.58.686a9.154 9.154 0 0 1 2.14 1.594l-.758.818c-.475-.516-1.07-.984-1.783-1.405-.713-.42-1.612-.63-2.697-.63-1.204 0-2.173.287-2.909.862-.735.576-1.103 1.299-1.103 2.17 0 .884.353 1.589 1.059 2.112.705.524 1.586.875 2.641 1.052l1.583.265c1.456.236 2.588.705 3.399 1.405.81.701 1.215 1.627 1.215 2.778 0 .575-.12 1.125-.357 1.648a3.8 3.8 0 0 1-1.048 1.361c-.46.384-1.036.694-1.727.93-.691.236-1.497.354-2.418.354-1.264 0-2.393-.229-3.389-.686C1.434 14.857.624 14.252 0 13.5l.758-.796c.535.59 1.226 1.11 2.073 1.56.847.45 1.872.675 3.076.675 1.337 0 2.396-.31 3.176-.93.78-.62 1.17-1.394 1.17-2.323 0-.885-.342-1.575-1.025-2.07-.684-.493-1.538-.837-2.563-1.029" fill="#FFF" mask="url(#yrobpoz3gd)"/>
        </g>
    </g>
</svg>
