<svg xmlns="http://www.w3.org/2000/svg" xmlns:xlink="http://www.w3.org/1999/xlink" width="129" height="22" viewBox="0 0 129 22">
    <defs>
        <path id="ii0qphtzua" d="M0.203 0.221L6.491 0.221 6.491 6.581 0.203 6.581z"/>
        <path id="ajf727jmsc" d="M0.185 0.227L9.869 0.227 9.869 13.391 0.185 13.391z"/>
    </defs>
    <g fill="none" fill-rule="evenodd">
        <g>
            <g>
                <path fill="#020303" d="M78.59 16.397c.407.314.998.499 1.719.499 2.346 0 3.971-3.325 3.971-5.598 0-1.053-.406-2.235-1.718-2.235-1.256 0-2.9 1.608-3.398 4.286l-.573 3.048zm-1.662 4.83l1.774-9.533c.221-1.164.387-2.185.498-3.142h.758l-.277 1.913h.037c.794-1.195 1.902-2.04 3.084-2.04 1.681 0 2.31 1.39 2.31 2.85 0 2.992-2.051 6.434-4.877 6.434-.868 0-1.44-.309-1.774-.309h-.036l-.702 3.826h-.795zM92.316 9.193c-.204-.074-.517-.13-1.071-.13-2.55 0-4.545 2.845-4.563 5.635-.019 1.163.314 2.198 1.514 2.198 1.441 0 3.067-2.162 3.492-4.452l.628-3.251zm-1.182 8.446c-.019-.717.092-1.434.221-2.391h-.037c-1.016 1.913-2.143 2.459-3.306 2.459-1.349 0-2.162-1.163-2.162-2.752 0-3.03 2.162-6.566 5.598-6.566.628 0 1.33.078 1.791.244l-.942 4.873c-.314 1.662-.425 3.177-.388 4.133h-.775zM93.812 17.64l1.127-6.077c.222-1.127.35-2.054.425-3.01h.72c-.055.717-.13 1.195-.24 2.152h.037c.536-1.196 1.423-2.234 2.53-2.234.111 0 .24-.037.333-.037l-.166.823c-.074-.019-.166-.032-.296-.032-1.164 0-2.457 1.861-2.826 3.8l-.85 4.614h-.794zM102.383 6.61l-.388 1.942h2.087l-.147.718h-2.088l-.979 5.263c-.11.59-.184 1.043-.184 1.523 0 .517.24.826.794.826.295 0 .48-.02.646-.076l.056.645c-.24.074-.554.129-.868.129-1.053 0-1.46-.703-1.46-1.441 0-.48.056-.923.204-1.606l.997-5.263h-1.275l.13-.718h1.293l.295-1.59.887-.353zM103.972 17.64l1.182-6.373c.203-1.053.314-1.997.388-2.715h.757l-.259 1.913h.038c.775-1.195 1.884-2.05 3.103-2.05.868 0 1.976.528 1.976 2.209 0 .443-.074.986-.166 1.466l-1.016 5.55h-.794l1.034-5.563c.074-.407.13-.888.13-1.35 0-.924-.37-1.617-1.46-1.617-1.182 0-2.863 1.577-3.251 3.72l-.868 4.81h-.794zM117.95 10.32c0-.813-.57-1.257-1.401-1.257-1.367 0-2.579 1.478-3.133 3.4 2.31.018 4.534-.37 4.534-2.125v-.019zm-.383 6.594c-.462.314-1.311.665-2.42.665-2.069 0-2.79-1.625-2.79-3.325 0-2.55 1.793-5.893 4.323-5.893 1.46 0 2.07.942 2.07 1.94 0 2.254-2.587 2.882-5.487 2.863-.092.407-.11 1.57.074 2.217.314.997.998 1.496 1.94 1.496.979 0 1.644-.35 2.05-.591l.24.628zM119.285 17.64l1.127-6.077c.222-1.127.351-2.054.425-3.01h.72c-.055.717-.13 1.195-.24 2.152h.037c.536-1.196 1.423-2.234 2.53-2.234.112 0 .24-.037.333-.037l-.166.823c-.074-.019-.166-.032-.296-.032-1.163 0-2.456 1.861-2.826 3.8l-.85 4.614h-.794zM123.94 16.378c.314.24.905.5 1.552.5 1.163 0 1.958-.832 1.958-1.848 0-.887-.37-1.422-1.2-1.958-.888-.573-1.368-1.367-1.368-2.198 0-1.386 1.127-2.513 2.697-2.513.61 0 1.2.185 1.46.388l-.296.684c-.277-.166-.74-.37-1.256-.37-1.071 0-1.792.758-1.792 1.663 0 .831.48 1.293 1.2 1.792.85.572 1.368 1.385 1.368 2.29 0 1.792-1.312 2.771-2.845 2.771-.794 0-1.496-.296-1.792-.536l.314-.665z" transform="translate(-169 -666) translate(169 666)"/>
                <path fill="#666" d="M6.91 7.228c-.017 0-.034-.002-.052-.004-.203-.029-.373-.212-.38-.41-.006-.193-.123-4.75 2.549-5.786.674-.262 1.287-.203 1.82.175.642.454 1.11 1.35 1.39 2.664.2.93.231 1.73.233 1.763.007.198-.151.336-.354.309-.203-.028-.373-.21-.38-.408-.032-.826-.318-3.11-1.245-3.766-.296-.21-.656-.228-1.098-.057-2.29.888-2.181 5.166-2.18 5.21.006.18-.126.31-.303.31" transform="translate(-169 -666) translate(169 666)"/>
                <path fill="#666" d="M12.616 2.745L2.28 5.945s-.443.126-.547.25c-.114.137-.137.507-.137.507L0 19.024l11.993 2.247.923-18.537c-.132-.026-.268.003-.3.01" transform="translate(-169 -666) translate(169 666)"/>
                <path fill="#231F20" d="M16.195 4.337s-.017-.094-.071-.13c-.054-.034-.113-.04-.113-.04L14.32 4.04l-1.246-1.237c-.047-.036-.101-.057-.157-.068l-.923 18.536 6.497-1.406-2.295-15.528z" transform="translate(-169 -666) translate(169 666)"/>
                <path fill="#FFF" d="M8.347 13.043c-.184-.247-.398-.465-.624-.658-.222-.19-.457-.355-.686-.502-.163-.102-.305-.2-.425-.297-.12-.095-.218-.19-.295-.284-.077-.094-.134-.188-.17-.284-.037-.096-.053-.195-.048-.299.006-.139.037-.265.09-.376.053-.112.128-.209.223-.29.096-.082.212-.147.346-.195.135-.048.289-.078.458-.088.185-.011.363-.006.532.012.171.018.334.047.485.084.152.038.293.082.419.13.127.046.24.096.335.142l.8-2.383c-.12-.061-.263-.117-.43-.164-.165-.047-.352-.085-.556-.11-.202-.027-.421-.04-.654-.04-.23.002-.473.017-.727.05-.546.072-1.038.223-1.47.438-.418.21-.781.481-1.08.804-.293.315-.527.683-.692 1.092-.163.404-.26.854-.282 1.342-.013.291.017.56.08.806.064.249.162.478.287.69.127.213.28.41.455.592.176.184.372.353.581.51.17.124.314.24.434.355.12.114.217.225.29.335.074.112.125.222.157.336.031.115.043.233.037.358-.005.125-.032.241-.08.345-.047.104-.115.194-.203.265-.088.07-.194.123-.32.151-.124.028-.265.033-.424.01-.18-.027-.362-.08-.538-.147-.174-.066-.343-.149-.501-.237-.157-.087-.303-.181-.433-.273-.129-.09-.242-.179-.334-.257l-.548 1.818c.09.116.206.232.342.344.138.113.297.223.472.325.178.104.373.2.58.284.212.085.436.158.67.214l.011.003.012.003c.004 0 .008.002.011.003l.012.002c.497.11.978.136 1.427.076.462-.061.887-.215 1.254-.463.375-.253.687-.603.913-1.049.228-.45.366-.994.394-1.624.016-.386-.037-.736-.142-1.053-.104-.315-.259-.595-.445-.846" transform="translate(-169 -666) translate(169 666)"/>
                <g transform="translate(-169 -666) translate(169 666) translate(3.826 .018)">
                    <mask id="yncr1lnnlb" fill="#fff">
                        <use xlink:href="#ii0qphtzua"/>
                    </mask>
                    <path fill="#666" d="M.565 6.58c-.018 0-.035 0-.052-.003-.198-.028-.335-.211-.307-.41.028-.193.714-4.75 3.568-5.786.72-.262 1.323-.202 1.79.175.561.454.871 1.35.92 2.665.035.929-.074 1.729-.078 1.762-.028.198-.21.337-.408.31-.198-.028-.336-.21-.309-.409.114-.825.231-3.11-.58-3.766-.26-.21-.616-.228-1.088-.057C1.574 1.95.928 6.228.922 6.271c-.026.18-.18.31-.357.31" mask="url(#yncr1lnnlb)"/>
                </g>
                <path fill="#231F20" d="M26.065 12.225c-.648-.352-.981-.648-.981-1.055 0-.519.463-.852 1.185-.852.666 0 1.24.185 1.592.352l.593-1.815c-.408-.24-1.167-.426-2.148-.426-2.24 0-3.777 1.278-3.777 3.074 0 1.018.722 1.796 1.685 2.351.777.445 1.055.76 1.055 1.222 0 .482-.389.87-1.111.87-.796.02-1.63-.314-2.092-.555l-.63 1.815c.482.333 1.463.61 2.518.629 2.296.019 3.944-1.13 3.944-3.166 0-1.092-.833-1.87-1.833-2.444M35.212 8.41c-1.13 0-2.018.538-2.703 1.352l-.037-.018.981-5.129h-2.555L28.417 17.67h2.555l.852-4.463c.333-1.685 1.203-2.721 2.018-2.721.574 0 .796.388.796.944 0 .352-.037.777-.111 1.13l-.963 5.11h2.555l1-5.278c.11-.555.185-1.222.185-1.666 0-1.444-.76-2.314-2.092-2.314M41.822 15.891c-.87 0-1.24-.74-1.24-1.666 0-1.463.759-3.852 2.147-3.852.907 0 1.204.778 1.204 1.537 0 1.574-.76 3.981-2.11 3.981m1.258-7.48c-3.074 0-5.11 2.777-5.11 5.87 0 1.98 1.222 3.573 3.518 3.573 3.018 0 5.054-2.704 5.054-5.87 0-1.833-1.073-3.573-3.462-3.573M50.635 15.928c-.463 0-.777-.148-1.055-.37l.426-2.389c.296-1.592 1.13-2.647 2.018-2.647.778 0 1.018.722 1.018 1.407 0 1.648-.98 4-2.407 4M53.08 8.41c-1.019 0-2.019.555-2.704 1.518h-.037l.148-1.37H48.23c-.111.926-.315 2.333-.519 3.389l-1.778 9.35h2.556l.703-3.778h.056c.296.186.87.334 1.5.334 3 0 4.962-3.074 4.962-6.185 0-1.721-.76-3.258-2.63-3.258M59.356 4.745c-.814 0-1.462.648-1.462 1.48 0 .76.481 1.279 1.203 1.279h.037c.796 0 1.482-.537 1.5-1.482 0-.74-.5-1.277-1.278-1.277M55.783 17.669L58.338 17.669 60.079 8.615 57.505 8.615zM66.578 8.596H64.8l.092-.426c.149-.87.667-1.648 1.519-1.648.333 0 .592.056.814.13l.5-2c-.296-.13-.759-.222-1.388-.222-.908 0-1.815.26-2.5.852-.87.74-1.278 1.814-1.481 2.888l-.074.426h-1.185l-.37 1.926h1.184l-1.351 7.146h2.555l1.352-7.146h1.759l.352-1.926z" transform="translate(-169 -666) translate(169 666)"/>
                <g transform="translate(-169 -666) translate(169 666) translate(65.522 8.388)">
                    <mask id="720h0ckp9d" fill="#fff">
                        <use xlink:href="#ajf727jmsc"/>
                    </mask>
                    <path fill="#231F20" d="M7.203.227L5.648 4.28c-.37.982-.556 1.556-.76 2.167h-.036c-.038-.593-.112-1.24-.223-2.148L4.222.227H1.537L3.074 8.54c.037.185.018.296-.056.426-.296.574-.796 1.13-1.388 1.537-.482.351-1.018.574-1.445.722L.89 13.39c.519-.11 1.593-.537 2.5-1.388 1.166-1.093 2.24-2.778 3.35-5.074L9.87.227H7.203z" mask="url(#720h0ckp9d)"/>
                </g>
            </g>
        </g>
    </g>
</svg>
