<?xml version="1.0" encoding="UTF-8"?>
<svg width="49px" height="59px" viewBox="0 0 49 59" version="1.1" xmlns="http://www.w3.org/2000/svg" xmlns:xlink="http://www.w3.org/1999/xlink">
    <title>Group 7</title>
    <defs>
        <polygon id="path-1" points="0 0.0750384943 48.7454487 0.0750384943 48.7454487 30.5101443 0 30.5101443"></polygon>
        <polygon id="path-3" points="0.349920402 0.107759233 30.3212589 0.107759233 30.3212589 27.1040438 0.349920402 27.1040438"></polygon>
    </defs>
    <g id="Page-1" stroke="none" stroke-width="1" fill="none" fill-rule="evenodd">
        <g id="Homepage---Aug-2020" transform="translate(-521.000000, -1197.000000)">
            <g id="Group-7" transform="translate(521.000000, 1197.000000)">
                <g id="Group-3" transform="translate(0.000000, 27.805907)">
                    <mask id="mask-2" fill="white">
                        <use xlink:href="#path-1"></use>
                    </mask>
                    <g id="Clip-2"></g>
                    <path d="M5.10291901,16.4349709 C5.62808299,16.4349709 6.0539267,16.8608146 6.0539267,17.3859785 C6.05327755,17.9104934 5.62808299,18.3356879 5.10291901,18.3363371 C4.57775504,18.3363371 4.15320963,17.9104934 4.15320963,17.3859785 C4.15320963,16.8608146 4.57775504,16.4349709 5.10291901,16.4349709 L5.10291901,16.4349709 Z M5.10291901,14.5952741 C3.56183215,14.5952741 2.31351284,15.8455408 2.31351284,17.3859785 C2.31351284,18.9270654 3.56183215,20.1760339 5.10291901,20.1760339 C6.64400588,20.1760339 7.89362349,18.9277146 7.89362349,17.3859785 C7.89167604,15.84619 6.64335673,14.5978707 5.10291901,14.5952741 L5.10291901,14.5952741 Z M44.6064153,13.4261513 C44.0987784,13.4261513 43.687216,13.8383628 43.687216,14.3459997 L43.687216,20.4246591 C43.687216,20.9329451 44.0987784,21.3445075 44.6064153,21.3445075 C45.1147013,21.3445075 45.5262637,20.9329451 45.5262637,20.4246591 L45.5262637,14.3459997 C45.5262637,13.8383628 45.1147013,13.4261513 44.6064153,13.4261513 L44.6064153,13.4261513 Z M41.7319702,6.13747257 L44.2792426,6.13747257 C44.9803268,6.14201663 45.6521991,6.42439775 46.1449055,6.9242448 C46.6376119,7.42344269 46.911554,8.09920993 46.9057117,8.8002941 L46.9057117,25.9703647 C46.9057117,27.4329042 45.741133,28.670837 44.2792426,28.670837 L41.7319702,28.670837 L41.7319702,6.13747257 Z M10.2325182,6.13747257 L12.3111029,6.13747257 L23.4213395,17.2548498 C23.5927156,17.4288226 23.8277087,17.5274937 24.072439,17.5274937 C24.3178184,17.5268445 24.550864,17.4275243 24.7228893,17.2529024 L35.8344242,6.13747257 L39.8929225,6.13747257 L39.8929225,28.670837 L10.2325182,28.670837 L10.2325182,6.13747257 Z M4.4673992,6.13747257 L8.39217223,6.13747257 L8.39217223,28.670837 L4.4673992,28.670837 C3.00485973,28.670837 1.83963187,27.4329042 1.83963187,25.9703647 L1.83963187,8.8002941 C1.83443866,8.09920993 2.1083808,7.42344269 2.60108718,6.9242448 C3.09379355,6.42439775 3.76566588,6.14201663 4.4673992,6.13747257 L4.4673992,6.13747257 Z M39.6832464,0.0750384943 C39.4489026,0.0750384943 39.2126112,0.165923253 39.0340944,0.345089207 L24.072439,15.308043 L9.71189826,0.948151422 C9.35356636,0.590468666 8.77452277,0.590468666 8.41619086,0.946853118 C8.05785895,1.30388672 8.05461319,1.88357946 8.41034849,2.24256052 L10.470757,4.29842493 L4.4673992,4.29842493 C1.99023514,4.30816221 -0.00980219531,6.32377919 -0.000100319579,8.8002941 L-0.000100319579,25.9703647 C-0.000100319579,28.4475288 1.99023514,30.5105338 4.4673992,30.5105338 L44.2792426,30.5105338 C46.7557576,30.5105338 48.7454487,28.4475288 48.7454487,25.9703647 L48.7454487,8.8002941 C48.7557949,6.32377919 46.7557576,4.30816221 44.2792426,4.29842493 L37.6734718,4.29842493 L40.3356442,1.64079661 C40.6939761,1.28246471 40.6920287,0.701473659 40.3330476,0.343141751 C40.1532325,0.164624949 39.9182395,0.07439282 39.6832464,0.0750384943 L39.6832464,0.0750384943 Z" id="Fill-1" fill="#FFFFFF" mask="url(#mask-2)"></path>
                </g>
                <g id="Group-6" transform="translate(9.088128, 0.541523)">
                    <mask id="mask-4" fill="white">
                        <use xlink:href="#path-3"></use>
                    </mask>
                    <g id="Clip-5"></g>
                    <path d="M28.0289555,25.1754131 C27.6991863,25.3428944 27.2973612,25.264347 27.0565258,24.9832641 C26.8156904,24.7021813 26.7981633,24.2925664 27.0156293,23.9926582 C27.1396173,23.8206329 27.3278714,23.7044347 27.5375475,23.6713279 C27.5803915,23.6635381 27.6225864,23.6609415 27.6654304,23.6609415 C28.0360962,23.6609415 28.3574265,23.9160582 28.4437637,24.2756885 C28.5294517,24.6353187 28.3587248,25.0072828 28.0289555,25.1754131 L28.0289555,25.1754131 Z M22.6429413,20.8397269 L16.2040026,23.7797363 L16.2040026,16.001597 L22.6429413,13.0414638 L22.6429413,20.8397269 Z M15.2776627,14.4007881 L9.2431456,11.6048904 L15.2776627,8.82716899 L21.313478,11.6048904 L15.2776627,14.4007881 Z M14.3649549,23.7797363 L7.92731448,20.8397269 L7.92731448,13.0414638 L14.3649549,16.001597 L14.3649549,23.7797363 Z M15.2997338,1.94875433 C15.7418063,1.94875433 16.1001383,2.30708623 16.1001383,2.7498079 C16.1001383,3.19188042 15.7418063,3.55021233 15.2997338,3.55021233 C14.8570122,3.55021233 14.4980311,3.19188042 14.4980311,2.7498079 C14.4986803,2.30708623 14.8570122,1.94940348 15.2997338,1.94875433 L15.2997338,1.94875433 Z M3.44686733,25.1111471 C3.08853542,25.3708079 2.58803922,25.2909622 2.32902757,24.9326303 C2.07001592,24.5736492 2.15051077,24.073153 2.50884268,23.8134922 C2.64451545,23.7148211 2.80810175,23.6615907 2.97623212,23.6615907 C3.01972531,23.6615907 3.06256934,23.6648364 3.10476422,23.6719771 C3.42544531,23.7232601 3.68186035,23.9627972 3.75716199,24.2776359 C3.83181447,24.5931238 3.70912474,24.9215947 3.44686733,25.1111471 L3.44686733,25.1111471 Z M29.7251897,22.7891304 C29.1260224,22.0562377 28.180208,21.6992041 27.2460782,21.8556498 C26.8922904,21.9140735 26.5547313,22.0471496 26.2574197,22.2464393 L24.481989,20.9442404 L24.481989,11.6016447 C24.4716025,11.2381195 24.2528383,10.9141927 23.9198233,10.7668352 L16.2040026,7.22895675 L16.2040026,5.22956857 C17.4055829,4.79268927 18.1209485,3.557353 17.9021842,2.29734895 C17.6840692,1.03734491 16.5954412,0.115549057 15.3166118,0.107709502 C14.0384315,0.0999694091 12.9374697,1.00813307 12.703775,2.26489135 C12.4694311,3.52164964 13.1692169,4.76672319 14.3649549,5.21918214 L14.3649549,7.22311438 L6.64394096,10.7668352 C6.31287344,10.9148418 6.09605667,11.2394179 6.08761769,11.6016447 L6.08761769,21.0072081 L4.3926818,22.2464393 C4.08887866,22.0471496 3.7461264,21.9140735 3.38649619,21.8556498 C1.95187026,21.6375347 0.610073056,22.6177542 0.382869854,24.0510819 C0.155666651,25.4837603 1.12744721,26.8320491 2.55817823,27.0696387 L2.55947653,27.0696387 C2.69969337,27.092359 2.84120851,27.1033946 2.98272364,27.1040438 C3.81298906,27.1033946 4.59456808,26.7113068 5.09181851,26.0465751 C5.5897181,25.3811943 5.74486543,24.5197696 5.51117071,23.7232601 L7.19182526,22.5086967 L14.8933647,26.0524175 C15.1374458,26.1640717 15.4185286,26.1640717 15.6619606,26.0524175 L23.4160814,22.4840289 L25.1291935,23.722611 C24.8974463,24.5197696 25.0525936,25.3805452 25.5504932,26.0452768 C26.0470945,26.7100085 26.8286735,27.1020963 27.659588,27.1040438 C27.8011032,27.1033946 27.9439166,27.0930082 28.0841335,27.0696387 C29.0202107,26.925527 29.8069829,26.2900071 30.1464894,25.405213 C30.4853467,24.5217171 30.324357,23.5233213 29.7251897,22.7891304 L29.7251897,22.7891304 Z" id="Fill-4" fill="#59C82A" mask="url(#mask-4)"></path>
                </g>
            </g>
        </g>
    </g>
</svg>