<?xml version="1.0" encoding="UTF-8"?>
<svg width="140px" height="22px" viewBox="0 0 140 22" version="1.1" xmlns="http://www.w3.org/2000/svg" xmlns:xlink="http://www.w3.org/1999/xlink">
    <title>oculus</title>
    <g id="Page-1" stroke="none" stroke-width="1" fill="none" fill-rule="evenodd">
        <g id="oculus" fill="#000000" fill-rule="nonzero">
            <path d="M47.5171875,21.09375 L12.625,21.09375 C11.9859375,21.09375 11.3234375,21.09375 10.6703125,21.0765625 C9.78753375,21.0533391 8.90925308,20.9423763 8.0484375,20.7453125 C6.53904644,20.3820281 5.12910154,19.6882626 3.9203125,18.7140625 C1.4631327,16.7444034 0.0332152902,13.7655791 0.0332152902,10.6164063 C0.0332152902,7.46723341 1.4631327,4.4884091 3.9203125,2.51875 C5.12915777,1.54463799 6.53908198,0.8508827 8.0484375,0.4875 C8.90811956,0.290233027 9.78543655,0.179783218 10.6671875,0.1578125 C11.3234375,0.140625 11.984375,0.140625 12.625,0.140625 L47.51875,0.140625 C50.8328125,0.140625 128.684375,0.140625 129.329687,0.15625 C130.212474,0.179370201 131.090765,0.290334247 131.951562,0.4875 C133.460723,0.851422366 134.870533,1.54512182 136.079687,2.51875 C138.53638,4.48904827 139.965889,7.46799512 139.965889,10.6171875 C139.965889,13.7663799 138.53638,16.7453267 136.079687,18.715625 C134.870533,19.6892532 133.460723,20.3829526 131.951562,20.746875 C131.09126,20.9438463 130.213506,21.0548085 129.33125,21.078125 C128.682813,21.09375 50.83125,21.09375 47.5171875,21.09375 Z M12.6265625,0.5453125 C11.9890625,0.5453125 11.3296875,0.5453125 10.6828125,0.5609375 C9.82714656,0.580491135 8.97555214,0.685173918 8.140625,0.8734375 C6.68762065,1.2211964 5.32995264,1.88722221 4.165625,2.8234375 C1.80138893,4.71928773 0.425643047,7.5859178 0.425643047,10.6164063 C0.425643047,13.6468947 1.80138893,16.5135248 4.165625,18.409375 C5.33080572,19.3448406 6.68892505,20.0102924 8.1421875,20.3578125 C8.97762709,20.5461687 9.82974907,20.650852 10.6859375,20.6703125 C11.3296875,20.6875 11.9890625,20.6875 12.6265625,20.6875 L47.5171875,20.6875 C50.83125,20.6875 128.678125,20.6875 129.317187,20.6703125 C130.172853,20.6507589 131.024448,20.546076 131.859375,20.3578125 C133.312034,20.0099291 134.669567,19.3445028 135.834375,18.409375 C138.198656,16.5132161 139.574396,13.6463422 139.574396,10.615625 C139.574396,7.58490782 138.198656,4.71803391 135.834375,2.821875 C134.668545,1.89002275 133.311176,1.22734494 131.859375,0.88125 C131.024466,0.692884215 130.172861,0.588200173 129.317187,0.56875 C128.679688,0.553125 48.3296875,0.553125 47.51875,0.553125 L12.6265625,0.5453125 Z" id="Shape"></path>
            <path d="M19.09375,7.68125 C18.6556546,7.32904567 18.1449873,7.07824769 17.5984375,6.946875 C17.2860716,6.87504993 16.9672878,6.83474394 16.646875,6.8265625 C16.40625,6.8265625 16.1671875,6.8265625 15.9265625,6.8265625 L12.5328125,6.8265625 C12.29375,6.8265625 12.053125,6.8265625 11.8140625,6.8265625 C11.4931271,6.83465011 11.1738156,6.87495662 10.8609375,6.946875 C9.16137144,7.35249483 7.96227019,8.87145144 7.96227019,10.61875 C7.96227019,12.3660485 9.16137144,13.8850052 10.8609375,14.290625 C11.1739502,14.3617829 11.4931857,14.4020798 11.8140625,14.4109375 C12.053125,14.4109375 12.29375,14.4109375 12.5328125,14.4109375 L15.9265625,14.4109375 C16.165625,14.4109375 16.40625,14.4109375 16.6453125,14.4109375 C16.9661893,14.4020798 17.2854248,14.3617829 17.5984375,14.290625 C19.2962377,13.8856743 20.4956524,12.3704202 20.5000046,10.625 C20.5012615,9.48317804 19.9839448,8.40256102 19.09375,7.6875 M17.440625,11.64375 C17.2740708,11.7559916 17.084571,11.8296563 16.8859375,11.859375 C16.6868889,11.8832604 16.4862832,11.8916189 16.2859375,11.884375 L12.1734375,11.884375 C11.9730918,11.8916189 11.7724861,11.8832604 11.5734375,11.859375 C11.374804,11.8296563 11.1853042,11.7559916 11.01875,11.64375 C10.6850695,11.4115225 10.4851654,11.0315302 10.4827983,10.625 C10.4814281,10.2171192 10.6821297,9.83502529 11.01875,9.60468749 C11.1858542,9.49268871 11.3759241,9.41954384 11.575,9.39062497 C11.7734162,9.36541023 11.9735676,9.35652629 12.1734375,9.36406249 L16.2859375,9.36406249 C16.4863273,9.35652499 16.6869978,9.36540883 16.8859375,9.39062497 C17.0844572,9.41982011 17.273959,9.49295181 17.440625,9.60468749 C17.7747555,9.83723197 17.974717,10.2179168 17.9765681,10.625 C17.9774291,11.0323284 17.7767873,11.4137235 17.440625,11.64375" id="Shape"></path>
            <path d="M28.715625,14.21875 C30.828125,14.21875 32.38125,12.65625 32.38125,10.59375 C32.38125,8.53125 30.828125,6.9671875 28.715625,6.9671875 C26.603125,6.9671875 25.05,8.5296875 25.05,10.59375 C25.05,12.6578125 26.603125,14.21875 28.715625,14.21875 M28.715625,12.596875 C27.5546875,12.596875 26.7984375,11.7453125 26.7984375,10.60625 C26.7984375,9.44062504 27.5546875,8.590625 28.715625,8.590625 C29.8765625,8.590625 30.6328125,9.44062504 30.6328125,10.60625 C30.6328125,11.7453125 29.8765625,12.596875 28.715625,12.596875 M38.628125,11.928125 C38.2582563,12.3627218 37.712756,12.6082257 37.1421875,12.596875 C35.98125,12.596875 35.2375,11.7453125 35.2375,10.60625 C35.2375,9.44062504 35.98125,8.590625 37.1421875,8.590625 C37.7187416,8.57674882 38.2685745,8.83345316 38.628125,9.284375 L39.828125,8.0796875 C39.1337691,7.34839403 38.1628539,6.9443662 37.1546875,6.9671875 C35.0421875,6.9671875 33.4890625,8.5296875 33.4890625,10.59375 C33.4890625,12.6578125 35.0421875,14.21875 37.1546875,14.21875 C38.1585282,14.2384128 39.1259252,13.8426338 39.828125,13.125 L38.628125,11.928125 Z M45.725,14.1015625 L47.40625,14.1015625 L47.40625,7.090625 L45.659375,7.090625 L45.659375,11.1234375 C45.6783844,11.5284775 45.5271089,11.9230053 45.2421735,12.2115023 C44.9572381,12.4999994 44.5646199,12.6561641 44.159375,12.6421875 C43.3234375,12.6421875 42.7640625,12.0171875 42.7640625,11.1234375 L42.7640625,7.090625 L41.015625,7.090625 L41.015625,11.40625 C41.015625,13.125 42.29375,14.21875 43.7546875,14.21875 C44.5028829,14.2165125 45.2165231,13.9035521 45.725,13.3546875 L45.725,14.1015625 Z M51.1640625,4.5328125 L49.415625,4.5328125 L49.415625,14.1015625 L51.1640625,14.1015625 L51.1640625,4.5328125 Z M57.8125,14.1078125 L59.4953125,14.1078125 L59.4953125,7.090625 L57.75,7.090625 L57.75,11.1234375 C57.7690094,11.5284775 57.6177339,11.9230053 57.3327985,12.2115023 C57.047863,12.4999994 56.6552449,12.6561641 56.25,12.6421875 C55.415625,12.6421875 54.8546875,12.0171875 54.8546875,11.1234375 L54.8546875,7.090625 L53.10625,7.090625 L53.10625,11.40625 C53.10625,13.125 54.384375,14.21875 55.8453125,14.21875 C56.5933671,14.2140345 57.305856,13.898819 57.8125,13.3484375 L57.8125,14.1078125 Z M61.875,11.778125 L60.79375,12.890625 C61.575,13.7796875 62.7234375,14.225 64.0140625,14.225 C65.7234375,14.225 67.028125,13.375 67.028125,11.9875 C67.028125,10.690625 66.115625,9.98437496 64.6671875,9.84062501 L63.8578125,9.76093748 C63.19375,9.69687497 62.7640625,9.47343749 62.7640625,9.08125 C62.7640625,8.6625 63.2078125,8.4265625 63.9640625,8.4265625 C64.6738945,8.40490681 65.3534755,8.71438463 65.803125,9.2640625 L66.8734375,8.1703125 C66.2078125,7.371875 65.190625,6.9921875 64.0421875,6.9921875 C62.25625,6.9921875 61.1203125,7.8828125 61.1203125,9.1921875 C61.1203125,10.3828125 61.98125,11.16875 63.5203125,11.3125 L64.3421875,11.390625 C65.0078125,11.45625 65.359375,11.6921875 65.359375,12.084375 C65.359375,12.56875 64.8125,12.7921875 64.109375,12.7921875 C63.2526927,12.8051023 62.4347949,12.4356737 61.878125,11.784375" id="Shape"></path>
            <polygon id="Path" points="73.1859375 7.1125 74.0203125 7.1125 74.0203125 14.125 73.1859375 14.125"></polygon>
            <path d="M75.540625,13.021875 C75.3792396,12.6423652 75.3014358,12.2325631 75.3125,11.8203125 L76.215625,11.8203125 C76.2065627,12.1323479 76.2596772,12.4430678 76.371875,12.734375 C76.6203125,13.2703125 77.1765625,13.56875 78.0703125,13.56875 C78.9140625,13.56875 79.5109375,13.290625 79.7296875,12.8140625 C79.8033997,12.6517511 79.8402201,12.4751194 79.8375,12.296875 C79.8385,12.1293406 79.8049917,11.9633948 79.7390625,11.809375 C79.4703125,11.2234375 78.6265625,11.0546875 77.6828125,10.8265625 C76.709375,10.5890625 75.915625,10.3 75.6171875,9.625 C75.5142269,9.39716587 75.4609624,9.1500186 75.4609375,8.9 C75.460384,8.63048166 75.5179415,8.36401163 75.6296875,8.11875 C75.9421875,7.403125 76.803125,6.95625 77.934375,6.95625 C79.096875,6.95625 79.871875,7.403125 80.21875,8.1671875 C80.3681951,8.5256386 80.4395706,8.91181186 80.428125,9.3 L79.5640625,9.3 C79.5743321,9.00789699 79.5237843,8.71684741 79.415625,8.4453125 C79.1859375,7.9390625 78.6796875,7.6515625 77.915625,7.6515625 C77.1515625,7.6515625 76.6140625,7.9296875 76.425,8.3765625 C76.3615858,8.5167681 76.3311198,8.66963322 76.3359375,8.8234375 C76.329001,8.97342539 76.35625,9.12302777 76.415625,9.2609375 C76.653125,9.80624997 77.478125,9.95625 78.421875,10.1984375 C79.415625,10.446875 80.259375,10.725 80.5875,11.4484375 C80.7952411,11.9701401 80.7845434,12.553453 80.5578125,13.0671875 C80.209375,13.8484375 79.3078125,14.2890625 78.034375,14.2890625 C76.703125,14.2828125 75.8875,13.796875 75.540625,13.021875 Z" id="Path"></path>
            <polygon id="Path" points="87.6296875 7.1125 84.946875 14.125 84.0921875 14.125 81.40625 7.1125 82.290625 7.1125 84.5203125 13.125 86.7546875 7.115625"></polygon>
            <path d="M90.5796875,7.1125 L93.0234375,7.1125 C94.0765625,7.1125 94.8203125,7.425 95.1390627,8.125 C95.2610456,8.41710121 95.3186043,8.73207279 95.3078121,9.0484375 C95.3189711,9.36938921 95.2614367,9.68902163 95.1390627,9.98593745 C94.8265621,10.6703125 94.0765625,10.9984375 93.0234375,10.9984375 L91.4140625,10.9984375 L91.4140625,14.1234375 L90.5796875,14.1234375 L90.5796875,7.1125 Z M92.8546875,10.2703125 C93.6187504,10.2703125 94.1359375,10.1140625 94.3437497,9.64531251 C94.4192844,9.45935555 94.4564871,9.26005927 94.4531252,9.059375 C94.4593216,8.85398537 94.4187141,8.64987726 94.3343753,8.4625 C94.1249997,7.99375 93.6187504,7.8265625 92.8546875,7.8265625 L91.4140625,7.8265625 L91.4140625,10.2703125 L92.8546875,10.2703125 Z" id="Shape"></path>
            <path d="M100.601562,12.296875 L97.3203121,12.296875 L96.6749999,14.125 L95.8015623,14.125 L98.3343751,7.1125 L99.5843753,7.1125 L102.117187,14.125 L101.253125,14.125 L100.601562,12.296875 Z M100.353125,11.5921875 L98.9734377,7.7078125 L98.9531247,7.7078125 L97.5718753,11.5921875 L100.353125,11.5921875 Z" id="Shape"></path>
            <path d="M104.932812,10.965625 L103.879687,10.965625 L103.879687,14.125 L103.045313,14.125 L103.045313,7.1125 L105.625,7.1125 C106.767187,7.1125 107.4625,7.459375 107.760937,8.125 C107.876824,8.4052247 107.934247,8.70616778 107.929688,9.009375 C107.936019,9.31880796 107.878576,9.62623107 107.760937,9.91249999 C107.471875,10.5578125 106.867187,10.915625 105.885938,10.965625 L108.359375,14.125 L107.365625,14.125 L104.932812,10.965625 Z M103.879687,10.2609375 L105.442187,10.2609375 C106.276563,10.2609375 106.7625,10.0515625 106.951563,9.625 C107.035901,9.43762269 107.076509,9.23351462 107.070313,9.028125 C107.075883,8.83383504 107.038537,8.64070735 106.960937,8.4625 C106.7625,8.00625 106.25625,7.8265625 105.442187,7.8265625 L103.879687,7.8265625 L103.879687,10.2609375 Z" id="Shape"></path>
            <polygon id="Path" points="110.545312 7.846875 108.707812 7.846875 108.707812 7.1125 113.217187 7.1125 113.217187 7.846875 111.379687 7.846875 111.379687 14.125 110.545312 14.125"></polygon>
            <polygon id="Path" points="114.21875 7.1125 115.1125 7.1125 118.8625 12.89375 118.8625 7.1125 119.676562 7.1125 119.676562 14.125 118.7625 14.125 115.028125 8.34375 115.028125 14.125 114.21875 14.125"></polygon>
            <polygon id="Path" points="121.232812 7.1125 125.404687 7.1125 125.404687 7.846875 122.067187 7.846875 122.067187 10.190625 125.375 10.190625 125.375 10.9265625 122.067187 10.9265625 122.067187 13.3890625 125.404687 13.3890625 125.404687 14.125 121.232812 14.125"></polygon>
            <path d="M128.614062,10.965625 L127.560937,10.965625 L127.560937,14.125 L126.726563,14.125 L126.726563,7.1125 L129.309375,7.1125 C130.451562,7.1125 131.146875,7.459375 131.445312,8.125 C131.560487,8.40543655 131.617884,8.70623249 131.614063,9.009375 C131.619599,9.31874204 131.562187,9.62600567 131.445312,9.91249999 C131.15625,10.5578125 130.55,10.915625 129.570313,10.965625 L132.034375,14.125 L131.046875,14.125 L128.614062,10.965625 Z M127.560937,10.2609375 L129.123437,10.2609375 C129.957812,10.2609375 130.445313,10.0515625 130.634375,9.625 C130.717942,9.43737667 130.758515,9.23344658 130.753125,9.028125 C130.757937,8.83389741 130.720624,8.64093188 130.64375,8.4625 C130.445313,8.00625 129.939062,7.8265625 129.123437,7.8265625 L127.560937,7.8265625 L127.560937,10.2609375 Z" id="Shape"></path>
        </g>
    </g>
</svg>