<?xml version="1.0" encoding="UTF-8"?>
<svg width="78px" height="68px" viewBox="0 0 78 68" version="1.1" xmlns="http://www.w3.org/2000/svg" xmlns:xlink="http://www.w3.org/1999/xlink">
    <title>WPE-BDG-PartnerProgram-Outline-Member-K</title>
    <g id="Page-1" stroke="none" stroke-width="1" fill="none" fill-rule="evenodd">
        <g id="WPE-BDG-PartnerProgram-Outline-Member-K">
            <path d="M1.188,66.269 L76.581,66.269 L76.581,9.666 L68.101,1.188 L9.666,1.188 L1.188,9.666 L1.188,66.269 Z M77.768,67.456 L0,67.456 L0,9.174 L9.174,0 L68.593,0 L77.768,9.174 L77.768,67.456 L77.768,67.456 Z" id="Fill-1" fill="#1B1A19"></path>
            <path d="M19.62,13.225 C19.555,13.225 19.519,13.197 19.5,13.133 L18.521,9.656 L18.503,9.656 L17.515,13.133 C17.497,13.197 17.46,13.225 17.396,13.225 L16.253,13.225 C16.188,13.225 16.152,13.197 16.134,13.133 L14.441,7.094 C14.432,7.039 14.45,7.002 14.514,7.002 L16.015,7.002 C16.088,7.002 16.124,7.039 16.134,7.094 L16.939,10.718 L16.957,10.718 L17.927,7.094 C17.945,7.03 17.981,7.002 18.046,7.002 L18.988,7.002 C19.052,7.002 19.089,7.03 19.107,7.094 L20.104,10.718 L20.123,10.718 L20.9,7.094 C20.91,7.039 20.946,7.002 21.01,7.002 L22.511,7.002 C22.565,7.002 22.593,7.039 22.575,7.094 L20.891,13.133 C20.873,13.197 20.836,13.225 20.763,13.225 L19.62,13.225" id="Fill-2" fill="#1B1A19"></path>
            <path d="M26.985,9.07 C26.985,8.641 26.701,8.366 26.198,8.366 L25.375,8.366 C25.337,8.366 25.319,8.384 25.319,8.421 L25.319,9.729 C25.319,9.766 25.337,9.784 25.375,9.784 L26.198,9.784 C26.701,9.784 26.985,9.5 26.985,9.07 Z M23.801,13.225 C23.746,13.225 23.709,13.188 23.709,13.133 L23.709,7.094 C23.709,7.039 23.746,7.002 23.801,7.002 L26.29,7.002 C27.808,7.002 28.595,7.863 28.595,9.07 C28.595,10.26 27.799,11.147 26.29,11.147 L25.375,11.147 C25.337,11.147 25.319,11.166 25.319,11.203 L25.319,13.133 C25.319,13.188 25.283,13.225 25.228,13.225 L23.801,13.225 L23.801,13.225 Z" id="Fill-3" fill="#1B1A19"></path>
            <path d="M34.62,9.833 C34.669,9.833 34.694,9.809 34.694,9.76 C34.694,9.34 34.645,9.02 34.558,8.735 C34.287,7.884 33.669,7.464 32.818,7.464 C31.967,7.464 31.35,7.884 31.079,8.735 C30.992,9.02 30.942,9.34 30.942,9.76 C30.942,9.809 30.967,9.833 31.017,9.833 L34.62,9.833 Z M30.745,11.71 C30.634,11.364 30.572,10.969 30.572,10.154 C30.572,9.353 30.634,8.933 30.745,8.6 C31.066,7.625 31.819,7.119 32.818,7.119 C33.818,7.119 34.571,7.612 34.892,8.6 C35.002,8.933 35.064,9.315 35.064,10.056 C35.064,10.13 35.015,10.179 34.929,10.179 L31.017,10.179 C30.967,10.179 30.942,10.216 30.942,10.266 C30.942,10.919 30.992,11.265 31.091,11.586 C31.387,12.475 32.028,12.87 32.893,12.87 C33.707,12.87 34.299,12.512 34.657,12.018 C34.706,11.957 34.768,11.944 34.83,11.993 L34.904,12.055 C34.966,12.105 34.966,12.166 34.916,12.227 C34.509,12.808 33.818,13.215 32.893,13.215 C31.807,13.215 31.066,12.709 30.745,11.71 L30.745,11.71 Z" id="Fill-4" fill="#1B1A19"></path>
            <path d="M40.605,13.091 C40.531,13.091 40.481,13.043 40.481,12.968 L40.481,9.463 C40.481,8.081 39.914,7.464 38.766,7.464 C37.791,7.464 36.977,8.131 36.977,9.278 L36.977,12.968 C36.977,13.043 36.927,13.091 36.854,13.091 L36.73,13.091 C36.656,13.091 36.606,13.043 36.606,12.968 L36.606,7.365 C36.606,7.291 36.656,7.242 36.73,7.242 L36.854,7.242 C36.927,7.242 36.977,7.291 36.977,7.365 L36.977,8.192 L36.989,8.192 C37.285,7.514 37.952,7.119 38.791,7.119 C40.111,7.119 40.852,7.872 40.852,9.377 L40.852,12.968 C40.852,13.043 40.802,13.091 40.728,13.091 L40.605,13.091" id="Fill-5" fill="#1B1A19"></path>
            <path d="M46.133,11.697 C46.257,11.339 46.293,10.895 46.293,10.167 C46.293,9.438 46.257,8.995 46.133,8.637 C45.849,7.773 45.22,7.464 44.492,7.464 C43.69,7.464 43.134,7.859 42.875,8.625 C42.752,8.995 42.69,9.488 42.69,10.167 C42.69,10.846 42.752,11.339 42.875,11.71 C43.134,12.475 43.69,12.87 44.492,12.87 C45.22,12.87 45.849,12.561 46.133,11.697 Z M42.616,14.597 C42.579,14.536 42.579,14.461 42.641,14.424 L42.74,14.363 C42.801,14.326 42.863,14.338 42.912,14.4 C43.246,14.831 43.764,15.091 44.467,15.091 C45.578,15.091 46.293,14.548 46.293,13.104 L46.293,12.117 L46.281,12.117 C45.998,12.771 45.479,13.215 44.455,13.215 C43.468,13.215 42.801,12.697 42.518,11.821 C42.382,11.413 42.32,10.895 42.32,10.167 C42.32,9.438 42.382,8.92 42.518,8.513 C42.801,7.637 43.468,7.119 44.455,7.119 C45.479,7.119 45.998,7.563 46.281,8.217 L46.293,8.217 L46.293,7.365 C46.293,7.291 46.343,7.242 46.417,7.242 L46.541,7.242 C46.615,7.242 46.664,7.291 46.664,7.365 L46.664,13.104 C46.664,14.721 45.788,15.437 44.467,15.437 C43.616,15.437 42.9,15.054 42.616,14.597 L42.616,14.597 Z" id="Fill-6" fill="#1B1A19"></path>
            <path d="M48.762,13.091 C48.688,13.091 48.638,13.043 48.638,12.968 L48.638,7.365 C48.638,7.291 48.688,7.242 48.762,7.242 L48.885,7.242 C48.959,7.242 49.008,7.291 49.008,7.365 L49.008,12.968 C49.008,13.043 48.959,13.091 48.885,13.091 L48.762,13.091 Z M48.675,5.44 C48.601,5.44 48.552,5.391 48.552,5.317 L48.552,4.823 C48.552,4.75 48.601,4.7 48.675,4.7 L48.971,4.7 C49.045,4.7 49.095,4.75 49.095,4.823 L49.095,5.317 C49.095,5.391 49.045,5.44 48.971,5.44 L48.675,5.44 L48.675,5.44 Z" id="Fill-7" fill="#1B1A19"></path>
            <path d="M54.981,13.091 C54.907,13.091 54.858,13.043 54.858,12.968 L54.858,9.463 C54.858,8.081 54.29,7.464 53.143,7.464 C52.167,7.464 51.353,8.131 51.353,9.278 L51.353,12.968 C51.353,13.043 51.304,13.091 51.229,13.091 L51.106,13.091 C51.032,13.091 50.982,13.043 50.982,12.968 L50.982,7.365 C50.982,7.291 51.032,7.242 51.106,7.242 L51.229,7.242 C51.304,7.242 51.353,7.291 51.353,7.365 L51.353,8.192 L51.365,8.192 C51.662,7.514 52.328,7.119 53.167,7.119 C54.488,7.119 55.228,7.872 55.228,9.377 L55.228,12.968 C55.228,13.043 55.179,13.091 55.104,13.091 L54.981,13.091" id="Fill-8" fill="#1B1A19"></path>
            <path d="M60.744,9.833 C60.793,9.833 60.818,9.809 60.818,9.76 C60.818,9.34 60.769,9.02 60.682,8.735 C60.411,7.884 59.793,7.464 58.942,7.464 C58.091,7.464 57.474,7.884 57.202,8.735 C57.116,9.02 57.066,9.34 57.066,9.76 C57.066,9.809 57.091,9.833 57.141,9.833 L60.744,9.833 Z M56.869,11.71 C56.758,11.364 56.696,10.969 56.696,10.154 C56.696,9.353 56.758,8.933 56.869,8.6 C57.19,7.625 57.943,7.119 58.942,7.119 C59.942,7.119 60.695,7.612 61.015,8.6 C61.126,8.933 61.188,9.315 61.188,10.056 C61.188,10.13 61.139,10.179 61.052,10.179 L57.141,10.179 C57.091,10.179 57.066,10.216 57.066,10.266 C57.066,10.919 57.116,11.265 57.214,11.586 C57.511,12.475 58.152,12.87 59.016,12.87 C59.831,12.87 60.423,12.512 60.781,12.018 C60.831,11.957 60.892,11.944 60.954,11.993 L61.028,12.055 C61.089,12.105 61.089,12.166 61.04,12.227 C60.633,12.808 59.942,13.215 59.016,13.215 C57.93,13.215 57.19,12.709 56.869,11.71 L56.869,11.71 Z" id="Fill-9" fill="#1B1A19"></path>
            <path d="M62.809,7.662 C62.809,7.584 62.768,7.536 62.668,7.536 L62.478,7.536 C62.471,7.536 62.467,7.539 62.467,7.543 L62.467,7.777 C62.467,7.784 62.471,7.784 62.478,7.784 L62.668,7.784 C62.768,7.784 62.809,7.74 62.809,7.662 Z M62.378,8.23 C62.356,8.23 62.344,8.219 62.344,8.197 L62.344,7.461 C62.344,7.439 62.356,7.428 62.378,7.428 L62.671,7.428 C62.831,7.428 62.924,7.52 62.924,7.662 C62.924,7.77 62.873,7.851 62.768,7.881 L62.924,8.193 C62.939,8.219 62.924,8.23 62.902,8.23 L62.839,8.23 C62.82,8.23 62.809,8.215 62.801,8.204 L62.646,7.896 L62.478,7.896 C62.471,7.896 62.467,7.899 62.467,7.903 L62.467,8.197 C62.467,8.219 62.453,8.23 62.434,8.23 L62.378,8.23 Z M63.217,7.833 C63.217,7.483 62.957,7.227 62.616,7.227 C62.266,7.227 62.01,7.483 62.01,7.833 C62.01,8.186 62.266,8.442 62.616,8.442 C62.957,8.442 63.217,8.186 63.217,7.833 Z M61.899,7.833 C61.899,7.428 62.207,7.12 62.616,7.12 C63.021,7.12 63.33,7.428 63.33,7.833 C63.33,8.241 63.021,8.55 62.616,8.55 C62.207,8.55 61.899,8.241 61.899,7.833 L61.899,7.833 Z" id="Fill-10" fill="#1B1A19"></path>
            <polygon id="Fill-11" fill="#1B1A19" points="8.218 58.628 69.549 58.628 69.549 47.008 8.218 47.008"></polygon>
            <path d="M19.545,50.136 C19.545,50.086 19.579,50.053 19.629,50.053 L19.944,50.053 C20.003,50.053 20.044,50.078 20.069,50.136 L21.907,54.186 L21.94,54.186 L23.736,50.136 C23.762,50.078 23.803,50.053 23.853,50.053 L24.178,50.053 C24.227,50.053 24.261,50.086 24.261,50.136 L24.261,55.625 C24.261,55.675 24.227,55.708 24.178,55.708 L23.87,55.708 C23.82,55.708 23.786,55.675 23.786,55.625 L23.786,51.201 L23.762,51.201 L22.132,54.785 C22.099,54.852 22.065,54.877 21.982,54.877 L21.815,54.877 C21.741,54.877 21.708,54.852 21.674,54.785 L20.044,51.201 L20.019,51.201 L20.019,55.625 C20.019,55.675 19.986,55.708 19.936,55.708 L19.629,55.708 C19.579,55.708 19.545,55.675 19.545,55.625 L19.545,50.136" id="Fill-12" fill="#FFFFFE"></path>
            <path d="M27.489,50.136 C27.489,50.086 27.523,50.053 27.573,50.053 L30.808,50.053 C30.857,50.053 30.891,50.086 30.891,50.136 L30.891,50.419 C30.891,50.469 30.857,50.502 30.808,50.502 L28.014,50.502 C27.98,50.502 27.964,50.519 27.964,50.552 L27.964,52.564 C27.964,52.598 27.98,52.614 28.014,52.614 L30.417,52.614 C30.467,52.614 30.5,52.647 30.5,52.698 L30.5,52.981 C30.5,53.03 30.467,53.064 30.417,53.064 L28.014,53.064 C27.98,53.064 27.964,53.08 27.964,53.113 L27.964,55.209 C27.964,55.242 27.98,55.259 28.014,55.259 L30.808,55.259 C30.857,55.259 30.891,55.292 30.891,55.342 L30.891,55.625 C30.891,55.675 30.857,55.708 30.808,55.708 L27.573,55.708 C27.523,55.708 27.489,55.675 27.489,55.625 L27.489,50.136" id="Fill-13" fill="#FFFFFE"></path>
            <path d="M33.777,50.136 C33.777,50.086 33.811,50.053 33.861,50.053 L34.177,50.053 C34.235,50.053 34.276,50.078 34.302,50.136 L36.14,54.186 L36.173,54.186 L37.969,50.136 C37.994,50.078 38.035,50.053 38.086,50.053 L38.41,50.053 C38.46,50.053 38.493,50.086 38.493,50.136 L38.493,55.625 C38.493,55.675 38.46,55.708 38.41,55.708 L38.103,55.708 C38.053,55.708 38.019,55.675 38.019,55.625 L38.019,51.201 L37.994,51.201 L36.364,54.785 C36.331,54.852 36.298,54.877 36.215,54.877 L36.048,54.877 C35.974,54.877 35.94,54.852 35.906,54.785 L34.276,51.201 L34.252,51.201 L34.252,55.625 C34.252,55.675 34.219,55.708 34.169,55.708 L33.861,55.708 C33.811,55.708 33.777,55.675 33.777,55.625 L33.777,50.136" id="Fill-14" fill="#FFFFFE"></path>
            <path d="M42.246,55.259 L43.734,55.259 C44.541,55.259 44.966,54.827 44.966,54.161 C44.966,53.496 44.541,53.055 43.734,53.055 L42.246,53.055 C42.213,53.055 42.196,53.072 42.196,53.105 L42.196,55.209 C42.196,55.242 42.213,55.259 42.246,55.259 Z M43.693,52.606 C44.458,52.606 44.874,52.174 44.874,51.558 C44.874,50.91 44.458,50.502 43.693,50.502 L42.246,50.502 C42.213,50.502 42.196,50.519 42.196,50.552 L42.196,52.556 C42.196,52.589 42.213,52.606 42.246,52.606 L43.693,52.606 Z M41.722,50.136 C41.722,50.086 41.756,50.053 41.806,50.053 L43.701,50.053 C44.774,50.053 45.348,50.627 45.348,51.517 C45.348,52.207 44.999,52.631 44.475,52.789 L44.475,52.806 C44.891,52.889 45.439,53.33 45.439,54.153 C45.439,55.126 44.815,55.708 43.701,55.708 L41.806,55.708 C41.756,55.708 41.722,55.675 41.722,55.625 L41.722,50.136 L41.722,50.136 Z" id="Fill-15" fill="#FFFFFE"></path>
            <path d="M48.384,50.136 C48.384,50.086 48.418,50.053 48.468,50.053 L51.702,50.053 C51.752,50.053 51.785,50.086 51.785,50.136 L51.785,50.419 C51.785,50.469 51.752,50.502 51.702,50.502 L48.908,50.502 C48.875,50.502 48.858,50.519 48.858,50.552 L48.858,52.564 C48.858,52.598 48.875,52.614 48.908,52.614 L51.312,52.614 C51.361,52.614 51.394,52.647 51.394,52.698 L51.394,52.981 C51.394,53.03 51.361,53.064 51.312,53.064 L48.908,53.064 C48.875,53.064 48.858,53.08 48.858,53.113 L48.858,55.209 C48.858,55.242 48.875,55.259 48.908,55.259 L51.702,55.259 C51.752,55.259 51.785,55.292 51.785,55.342 L51.785,55.625 C51.785,55.675 51.752,55.708 51.702,55.708 L48.468,55.708 C48.418,55.708 48.384,55.675 48.384,55.625 L48.384,50.136" id="Fill-16" fill="#FFFFFE"></path>
            <path d="M57.9,51.617 C57.9,50.91 57.451,50.502 56.644,50.502 L55.197,50.502 C55.164,50.502 55.147,50.519 55.147,50.552 L55.147,52.681 C55.147,52.714 55.164,52.731 55.197,52.731 L56.644,52.731 C57.451,52.731 57.9,52.332 57.9,51.617 Z M58.024,55.708 C57.974,55.708 57.95,55.691 57.924,55.633 L56.735,53.18 L55.197,53.18 C55.164,53.18 55.147,53.197 55.147,53.23 L55.147,55.625 C55.147,55.675 55.114,55.708 55.064,55.708 L54.757,55.708 C54.707,55.708 54.673,55.675 54.673,55.625 L54.673,50.136 C54.673,50.086 54.707,50.053 54.757,50.053 L56.652,50.053 C57.716,50.053 58.374,50.652 58.374,51.617 C58.374,52.398 57.941,52.939 57.218,53.113 L58.449,55.617 C58.482,55.667 58.456,55.708 58.407,55.708 L58.024,55.708 L58.024,55.708 Z" id="Fill-17" fill="#FFFFFE"></path>
            <path d="M11.914,37.644 C11.914,36.981 11.454,36.521 10.705,36.521 L9.272,36.521 C9.229,36.521 9.208,36.542 9.208,36.584 L9.208,38.703 C9.208,38.745 9.229,38.767 9.272,38.767 L10.705,38.767 C11.454,38.767 11.914,38.317 11.914,37.644 Z M8.053,42.66 C7.988,42.66 7.945,42.617 7.945,42.553 L7.945,35.494 C7.945,35.429 7.988,35.387 8.053,35.387 L10.78,35.387 C12.192,35.387 13.177,36.296 13.177,37.644 C13.177,39.002 12.192,39.911 10.78,39.911 L9.272,39.911 C9.229,39.911 9.208,39.933 9.208,39.976 L9.208,42.553 C9.208,42.617 9.165,42.66 9.101,42.66 L8.053,42.66 L8.053,42.66 Z" id="Fill-18" fill="#1B1A19"></path>
            <path d="M20.267,40.018 L19.304,37.194 L19.272,37.194 L18.299,40.018 L20.267,40.018 Z M18.673,35.494 C18.694,35.429 18.737,35.387 18.812,35.387 L19.796,35.387 C19.871,35.387 19.914,35.429 19.935,35.494 L22.395,42.553 C22.417,42.617 22.395,42.66 22.32,42.66 L21.272,42.66 C21.197,42.66 21.154,42.628 21.133,42.553 L20.652,41.141 L17.914,41.141 L17.433,42.553 C17.411,42.628 17.368,42.66 17.293,42.66 L16.256,42.66 C16.181,42.66 16.159,42.617 16.181,42.553 L18.673,35.494 L18.673,35.494 Z" id="Fill-19" fill="#1B1A19"></path>
            <path d="M30.544,37.558 C30.544,36.927 30.095,36.521 29.432,36.521 L27.881,36.521 C27.838,36.521 27.816,36.542 27.816,36.584 L27.816,38.521 C27.816,38.564 27.838,38.585 27.881,38.585 L29.432,38.585 C30.095,38.585 30.544,38.178 30.544,37.558 Z M30.683,42.66 C30.598,42.66 30.555,42.628 30.522,42.553 L29.132,39.719 L27.881,39.719 C27.838,39.719 27.816,39.74 27.816,39.783 L27.816,42.553 C27.816,42.617 27.773,42.66 27.709,42.66 L26.661,42.66 C26.597,42.66 26.554,42.617 26.554,42.553 L26.554,35.494 C26.554,35.429 26.597,35.387 26.661,35.387 L29.475,35.387 C30.811,35.387 31.796,36.274 31.796,37.558 C31.796,38.51 31.25,39.248 30.416,39.558 L31.945,42.521 C31.988,42.596 31.945,42.66 31.87,42.66 L30.683,42.66 L30.683,42.66 Z" id="Fill-20" fill="#1B1A19"></path>
            <path d="M37.924,42.66 C37.86,42.66 37.817,42.617 37.817,42.553 L37.817,36.584 C37.817,36.542 37.796,36.521 37.753,36.521 L35.85,36.521 C35.785,36.521 35.742,36.478 35.742,36.414 L35.742,35.494 C35.742,35.429 35.785,35.387 35.85,35.387 L41.048,35.387 C41.111,35.387 41.154,35.429 41.154,35.494 L41.154,36.414 C41.154,36.478 41.111,36.521 41.048,36.521 L39.144,36.521 C39.101,36.521 39.079,36.542 39.079,36.584 L39.079,42.553 C39.079,42.617 39.037,42.66 38.973,42.66 L37.924,42.66" id="Fill-21" fill="#1B1A19"></path>
            <path d="M45.355,35.494 C45.355,35.429 45.398,35.387 45.463,35.387 L46.447,35.387 C46.532,35.387 46.586,35.418 46.629,35.494 L49.592,40.51 L49.635,40.51 L49.635,35.494 C49.635,35.429 49.678,35.387 49.741,35.387 L50.672,35.387 C50.736,35.387 50.779,35.429 50.779,35.494 L50.779,42.553 C50.779,42.617 50.736,42.66 50.672,42.66 L49.698,42.66 C49.613,42.66 49.56,42.628 49.517,42.553 L46.543,37.547 L46.5,37.547 L46.5,42.553 C46.5,42.617 46.458,42.66 46.394,42.66 L45.463,42.66 C45.398,42.66 45.355,42.617 45.355,42.553 L45.355,35.494" id="Fill-22" fill="#1B1A19"></path>
            <path d="M55.548,35.494 C55.548,35.429 55.591,35.387 55.655,35.387 L60.211,35.387 C60.276,35.387 60.319,35.429 60.319,35.494 L60.319,36.414 C60.319,36.478 60.276,36.521 60.211,36.521 L56.875,36.521 C56.832,36.521 56.811,36.542 56.811,36.584 L56.811,38.36 C56.811,38.403 56.832,38.424 56.875,38.424 L59.687,38.424 C59.751,38.424 59.794,38.467 59.794,38.531 L59.794,39.451 C59.794,39.516 59.751,39.558 59.687,39.558 L56.875,39.558 C56.832,39.558 56.811,39.58 56.811,39.623 L56.811,41.462 C56.811,41.505 56.832,41.526 56.875,41.526 L60.211,41.526 C60.276,41.526 60.319,41.569 60.319,41.633 L60.319,42.553 C60.319,42.617 60.276,42.66 60.211,42.66 L55.655,42.66 C55.591,42.66 55.548,42.617 55.548,42.553 L55.548,35.494" id="Fill-23" fill="#1B1A19"></path>
            <path d="M68.798,37.558 C68.798,36.927 68.349,36.521 67.686,36.521 L66.135,36.521 C66.092,36.521 66.071,36.542 66.071,36.584 L66.071,38.521 C66.071,38.564 66.092,38.585 66.135,38.585 L67.686,38.585 C68.349,38.585 68.798,38.178 68.798,37.558 Z M68.937,42.66 C68.852,42.66 68.809,42.628 68.777,42.553 L67.386,39.719 L66.135,39.719 C66.092,39.719 66.071,39.74 66.071,39.783 L66.071,42.553 C66.071,42.617 66.028,42.66 65.963,42.66 L64.915,42.66 C64.851,42.66 64.808,42.617 64.808,42.553 L64.808,35.494 C64.808,35.429 64.851,35.387 64.915,35.387 L67.729,35.387 C69.066,35.387 70.05,36.274 70.05,37.558 C70.05,38.51 69.504,39.248 68.67,39.558 L70.2,42.521 C70.243,42.596 70.2,42.66 70.124,42.66 L68.937,42.66 L68.937,42.66 Z" id="Fill-24" fill="#1B1A19"></path>
            <path d="M14.351,27.4 L12.789,22.818 L12.737,22.818 L11.157,27.4 L14.351,27.4 Z M11.765,20.059 C11.799,19.955 11.869,19.885 11.991,19.885 L13.587,19.885 C13.708,19.885 13.778,19.955 13.812,20.059 L17.804,31.512 C17.838,31.617 17.804,31.686 17.683,31.686 L15.981,31.686 C15.861,31.686 15.791,31.634 15.756,31.512 L14.976,29.222 L10.533,29.222 L9.752,31.512 C9.717,31.634 9.647,31.686 9.526,31.686 L7.842,31.686 C7.722,31.686 7.687,31.617 7.722,31.512 L11.765,20.059 L11.765,20.059 Z" id="Fill-25" fill="#1B1A19"></path>
            <path d="M19.084,25.786 C19.084,23.929 19.152,23.27 19.395,22.541 C20.003,20.666 21.53,19.694 23.612,19.694 C25.816,19.694 27.239,20.875 27.725,22.193 C27.76,22.28 27.742,22.384 27.656,22.437 L26.198,23.079 C26.094,23.113 26.008,23.061 25.973,22.992 C25.453,22.055 24.74,21.534 23.595,21.534 C22.398,21.534 21.704,22.124 21.373,23.079 C21.235,23.513 21.165,24.103 21.165,25.786 C21.165,27.452 21.235,28.059 21.373,28.493 C21.704,29.447 22.398,30.038 23.595,30.038 C24.637,30.038 25.521,29.517 25.833,28.563 C25.956,28.198 26.025,27.712 26.025,27.035 C26.025,26.966 25.99,26.931 25.921,26.931 L23.977,26.931 C23.873,26.931 23.804,26.862 23.804,26.757 L23.804,25.369 C23.804,25.265 23.873,25.196 23.977,25.196 L27.882,25.196 C27.986,25.196 28.055,25.265 28.055,25.369 L28.055,26.393 C28.055,27.365 27.969,28.389 27.777,28.979 C27.205,30.818 25.643,31.877 23.612,31.877 C21.53,31.877 20.003,30.905 19.395,29.031 C19.152,28.302 19.084,27.643 19.084,25.786" id="Fill-26" fill="#1B1A19"></path>
            <path d="M30.74,20.059 C30.74,19.955 30.81,19.885 30.914,19.885 L38.307,19.885 C38.411,19.885 38.479,19.955 38.479,20.059 L38.479,21.551 C38.479,21.655 38.411,21.725 38.307,21.725 L32.893,21.725 C32.823,21.725 32.788,21.759 32.788,21.829 L32.788,24.71 C32.788,24.779 32.823,24.814 32.893,24.814 L37.456,24.814 C37.56,24.814 37.629,24.883 37.629,24.987 L37.629,26.48 C37.629,26.584 37.56,26.653 37.456,26.653 L32.893,26.653 C32.823,26.653 32.788,26.688 32.788,26.757 L32.788,29.742 C32.788,29.812 32.823,29.846 32.893,29.846 L38.307,29.846 C38.411,29.846 38.479,29.916 38.479,30.02 L38.479,31.512 C38.479,31.617 38.411,31.686 38.307,31.686 L30.914,31.686 C30.81,31.686 30.74,31.617 30.74,31.512 L30.74,20.059" id="Fill-27" fill="#1B1A19"></path>
            <path d="M41.06,20.059 C41.06,19.955 41.13,19.885 41.234,19.885 L42.831,19.885 C42.969,19.885 43.056,19.938 43.126,20.059 L47.933,28.198 L48.002,28.198 L48.002,20.059 C48.002,19.955 48.071,19.885 48.176,19.885 L49.685,19.885 C49.79,19.885 49.859,19.955 49.859,20.059 L49.859,31.512 C49.859,31.617 49.79,31.686 49.685,31.686 L48.106,31.686 C47.967,31.686 47.881,31.634 47.811,31.512 L42.986,23.391 L42.918,23.391 L42.918,31.512 C42.918,31.617 42.848,31.686 42.744,31.686 L41.234,31.686 C41.13,31.686 41.06,31.617 41.06,31.512 L41.06,20.059" id="Fill-28" fill="#1B1A19"></path>
            <path d="M52.543,25.786 C52.543,23.912 52.612,23.321 52.855,22.592 C53.462,20.666 54.955,19.694 56.951,19.694 C58.842,19.694 60.266,20.666 60.942,22.228 C60.977,22.315 60.942,22.402 60.856,22.437 L59.38,23.148 C59.276,23.2 59.19,23.148 59.155,23.061 C58.773,22.228 58.113,21.534 56.951,21.534 C55.823,21.534 55.163,22.142 54.833,23.096 C54.678,23.582 54.625,24.05 54.625,25.786 C54.625,27.521 54.678,27.99 54.833,28.476 C55.163,29.43 55.823,30.038 56.951,30.038 C58.113,30.038 58.773,29.343 59.155,28.51 C59.19,28.423 59.276,28.372 59.38,28.423 L60.856,29.135 C60.942,29.169 60.977,29.256 60.942,29.343 C60.266,30.905 58.842,31.877 56.951,31.877 C54.955,31.877 53.462,30.905 52.855,28.979 C52.612,28.25 52.543,27.66 52.543,25.786" id="Fill-29" fill="#1B1A19"></path>
            <path d="M65.796,31.686 C65.693,31.686 65.623,31.617 65.623,31.512 L65.623,26.862 L62.204,20.059 C62.169,19.972 62.221,19.885 62.343,19.885 L64.095,19.885 C64.2,19.885 64.287,19.938 64.339,20.059 L66.646,24.641 L66.699,24.641 L69.025,20.059 C69.076,19.938 69.145,19.885 69.267,19.885 L70.951,19.885 C71.089,19.885 71.123,19.972 71.089,20.059 L67.671,26.862 L67.671,31.512 C67.671,31.617 67.601,31.686 67.497,31.686 L65.796,31.686" id="Fill-30" fill="#1B1A19"></path>
        </g>
    </g>
</svg>