<svg xmlns="http://www.w3.org/2000/svg" width="19" height="16" viewBox="0 0 19 16">
    <path fill-rule="evenodd" stroke="#000" stroke-width=".2" d="M3.55 7.714l-1.372-.866 1.372-1.01v1.876zM6.04 3.9h8.56v4.351l-5.1 3.221-5.1-3.22V3.9h1.64zM9.5 1.453l2.167 1.597H7.333L9.5 1.453zm7.322 5.395l-1.372.866V5.837l1.372 1.01zm-3.77 3.386l4.098-2.588v6.7l-4.098-4.112zm-6.367.466l2.588 1.634c.139.088.315.088.454 0l2.588-1.634 4.236 4.25H2.45l4.236-4.25zM1.85 7.646l4.098 2.588-4.098 4.112v-6.7zm15.977-1.113L15.45 4.78V3.475c0-.235-.19-.425-.425-.425h0H13.1L9.752.583c-.15-.11-.354-.11-.504 0L5.9 3.05H3.975c-.235 0-.425.19-.425.424v1.307L1.173 6.533c-.109.08-.173.207-.173.342v8.5c0 .234.19.425.425.425h16.15c.235 0 .425-.19.425-.425h0v-8.5c0-.135-.064-.262-.173-.342h0z"/>
</svg>
