<?xml version="1.0" encoding="UTF-8"?>
<svg width="19px" height="16px" viewBox="0 0 19 16" version="1.1" xmlns="http://www.w3.org/2000/svg" xmlns:xlink="http://www.w3.org/1999/xlink">
    <title>new-letter-icon-black</title>
    <g id="Page-1" stroke="none" stroke-width="1" fill="none" fill-rule="evenodd">
        <g id="new-letter-icon-black" transform="translate(1.000000, 0.000000)" fill="#FFFFFF" fill-rule="nonzero" stroke="#FFFFFF" stroke-width="0.2">
            <path d="M2.55,7.714 L1.178,6.848 L2.55,5.838 L2.55,7.714 Z M5.04,3.9 L13.6,3.9 L13.6,8.251 L8.5,11.472 L3.4,8.252 L3.4,3.9 L5.04,3.9 Z M8.5,1.453 L10.667,3.05 L6.333,3.05 L8.5,1.453 Z M15.822,6.848 L14.45,7.714 L14.45,5.837 L15.822,6.847 L15.822,6.848 Z M12.052,10.234 L16.15,7.646 L16.15,14.346 L12.052,10.234 Z M5.685,10.7 L8.273,12.334 C8.412,12.422 8.588,12.422 8.727,12.334 L11.315,10.7 L15.551,14.95 L1.45,14.95 L5.686,10.7 L5.685,10.7 Z M0.85,7.646 L4.948,10.234 L0.85,14.346 L0.85,7.646 Z M16.827,6.533 L14.45,4.78 L14.45,3.475 C14.45,3.24 14.26,3.05 14.025,3.05 L14.025,3.05 L12.1,3.05 L8.752,0.583 C8.602,0.473 8.398,0.473 8.248,0.583 L4.9,3.05 L2.975,3.05 C2.74,3.05 2.55,3.24 2.55,3.474 L2.55,4.781 L0.173,6.533 C0.064,6.613 0,6.74 0,6.875 L0,15.375 C0,15.609 0.19,15.8 0.425,15.8 L16.575,15.8 C16.81,15.8 17,15.61 17,15.375 L17,15.375 L17,6.875 C17,6.74 16.936,6.613 16.827,6.533 L16.827,6.533 Z" id="Shape"></path>
        </g>
    </g>
</svg>