<?xml version="1.0" encoding="UTF-8"?>
<svg width="13px" height="13px" viewBox="0 0 13 13" version="1.1" xmlns="http://www.w3.org/2000/svg" xmlns:xlink="http://www.w3.org/1999/xlink">
    <!-- Generator: Sketch 55.2 (78181) - https://sketchapp.com -->
    <title>Group</title>
    <desc>Created with Sketch.</desc>
    <g id="Page-1" stroke="none" stroke-width="1" fill="none" fill-rule="evenodd">
        <g id="Group">
            <rect id="Rectangle" x="0" y="0" width="13" height="13"></rect>
            <g id="scroll-star-icon" transform="translate(1.000000, 1.000000)" fill-rule="nonzero">
                <g id="Group-3" fill="#000000" stroke="#000000" stroke-width="0.3">
                    <path d="M10.0839337,9.67144444 C10.0839337,9.83698765 10.0485962,9.90760494 10.0400712,9.91602469 C9.99400875,9.96165432 9.47384625,10.0800741 8.27718375,9.51228395 C7.62873375,9.20455556 6.93243375,8.76903704 6.22733375,8.23859259 C6.59308375,7.9258395 6.95979625,7.59 7.32183375,7.2321605 C7.68414625,6.87445679 8.02432125,6.51281481 8.34084625,6.15117284 C9.48855875,7.64296296 10.0839337,8.95291358 10.0839337,9.67144444 M1.20789625,9.95975309 C1.04000875,9.95975309 0.96850875,9.92485185 0.95984625,9.91670371 C0.91378375,9.87093827 0.79415875,9.35733334 1.36904625,8.17530865 C1.68062125,7.53432099 2.12117125,6.84675309 2.65824625,6.15035803 C2.97518375,6.512 3.31535875,6.87418519 3.67794625,7.23229629 C4.03970875,7.59013581 4.40587125,7.92570371 4.77217125,8.23818519 C3.26173375,9.3717284 1.93485875,9.95975309 1.20789625,9.95975309 M0.91612125,1.19302469 C0.91612125,1.02775309 0.95104625,0.957 0.95984625,0.94817284 C1.00549625,0.903086419 1.52579625,0.784530865 2.72273375,1.35232099 C3.37187125,1.66004938 4.06748375,2.0955679 4.77313375,2.62560494 C4.40683375,2.93862963 4.03984625,3.27460494 3.67725875,3.63271605 C3.31549625,3.99041975 2.97532125,4.35219753 2.65934625,4.7134321 C1.51149625,3.22150618 0.91612125,1.91101234 0.91612125,1.19302469 M7.75550875,5.43196296 C7.41973375,5.82130865 7.05975875,6.21051852 6.67352125,6.59198766 C6.27958375,6.98160494 5.88647125,7.33604938 5.50050875,7.65980247 C5.10615875,7.32871605 4.71222125,6.97318519 4.32625875,6.59198766 C3.93177125,6.20264197 3.57248375,5.81424691 3.24468375,5.43332099 C3.57990875,5.04329629 3.93947125,4.65476543 4.32529625,4.2734321 C4.72019625,3.88395062 5.11317125,3.52855556 5.49913375,3.20480247 C5.89403375,3.5364321 6.28824625,3.89196296 6.67379625,4.27302469 C7.06842125,4.66264197 7.42798375,5.05035803 7.75550875,5.43196296 M9.79202125,0.904851852 C9.96004625,0.904851852 10.0311337,0.939345679 10.0400712,0.94817284 C10.0864087,0.993666666 10.2057587,1.50740741 9.63128375,2.68929629 C9.31970875,3.33041975 8.87874625,4.01798766 8.34167125,4.71438272 C8.02500875,4.35260494 7.68497125,3.99096297 7.32224625,3.63285185 C6.96007125,3.27569135 6.59377125,2.93971605 6.22815875,2.62709876 C7.73804625,1.49287654 9.06492125,0.904851852 9.79202125,0.904851852 M10.6882462,0.307864197 C9.89363375,-0.477345679 7.76898375,0.289259259 5.50009625,2.03893828 C3.23052125,0.289259259 1.10587125,-0.476938272 0.31180875,0.307864197 C-0.48335375,1.09307407 0.29297125,3.19108641 2.06383375,5.43223457 C0.29338375,7.67351852 -0.48335375,9.77193827 0.31180875,10.5567407 C1.10628375,11.341679 3.23148375,10.5748025 5.50023375,8.82553087 C7.76898375,10.5748025 9.89377125,11.341679 10.6883837,10.5567407 C11.4834087,9.77139506 10.7066712,7.67297531 8.93553375,5.43223457 C10.7070837,3.19108641 11.4834087,1.09266667 10.6882462,0.307864197" id="Fill-1"></path>
                </g>
                <path d="M7.75550875,5.43196296 C7.41973375,5.82130865 7.05975875,6.21051852 6.67352125,6.59198766 C6.27958375,6.98160494 5.88647125,7.33604938 5.50050875,7.65980247 C5.10615875,7.32871605 4.71222125,6.97318519 4.32625875,6.59198766 C3.93177125,6.20264197 3.57248375,5.81424691 3.24468375,5.43332099 C3.57990875,5.04329629 3.93947125,4.65476543 4.32529625,4.2734321 C4.72019625,3.88395062 5.11317125,3.52855556 5.49913375,3.20480247 C5.89403375,3.5364321 6.28824625,3.89196296 6.67379625,4.27302469 C7.06842125,4.66264197 7.42798375,5.05035803 7.75550875,5.43196296" id="Path" fill="#59C82A"></path>
            </g>
        </g>
    </g>
</svg>