<?xml version="1.0" encoding="UTF-8"?>
<svg width="13px" height="13px" viewBox="0 0 13 13" version="1.1" xmlns="http://www.w3.org/2000/svg" xmlns:xlink="http://www.w3.org/1999/xlink">
    <!-- Generator: Sketch 58 (84663) - https://sketch.com -->
    <title>scroll-star-icon-wh</title>
    <desc>Created with Sketch.</desc>
    <g id="Page-1" stroke="none" stroke-width="1" fill="none" fill-rule="evenodd">
        <g id="scroll-star-icon-wh">
            <rect id="Rectangle" x="0" y="0" width="13" height="13"></rect>
            <g fill-rule="nonzero">
                <g id="Group-3" fill="#FFFFFF">
                    <path d="M11.9173763,11.4298889 C11.9173763,11.6255309 11.8756138,11.7089877 11.8655388,11.7189383 C11.8111013,11.7728642 11.1963638,11.9128148 9.78212625,11.2417901 C9.01577625,10.8781111 8.19287625,10.3634074 7.35957625,9.73651852 C7.79182625,9.36690123 8.22521375,8.97 8.65307625,8.54709877 C9.08126375,8.12435802 9.48328875,7.69696296 9.85736375,7.2695679 C11.2137512,9.03259259 11.9173763,10.580716 11.9173763,11.4298889 M1.42751375,11.7706173 C1.22910125,11.7706173 1.14460125,11.7293704 1.13436375,11.7197407 C1.07992625,11.6656543 0.93855125,11.0586667 1.61796375,9.6617284 C1.98618875,8.90419753 2.50683875,8.09161729 3.14156375,7.26860494 C3.51612625,7.696 3.91815125,8.12403704 4.34666375,8.54725925 C4.77420125,8.9701605 5.20693875,9.36674075 5.63983875,9.73603704 C3.85477625,11.075679 2.28665125,11.7706173 1.42751375,11.7706173 M1.08268875,1.40993827 C1.08268875,1.21461729 1.12396375,1.131 1.13436375,1.1205679 C1.18831375,1.06728395 1.80321375,0.92717284 3.21777625,1.59819753 C3.98493875,1.96187654 4.80702625,2.47658025 5.64097625,3.10298766 C5.20807625,3.47292593 4.77436375,3.86998766 4.34585125,4.29320988 C3.91831375,4.71595061 3.51628875,5.14350617 3.14286375,5.57041975 C1.78631375,3.80723458 1.08268875,2.25846913 1.08268875,1.40993827 M9.16560125,6.4195926 C8.76877625,6.8797284 8.34335125,7.33970371 7.88688875,7.79053087 C7.42132625,8.25098766 6.95673875,8.66987654 6.50060125,9.05249383 C6.03455125,8.66120988 5.56898875,8.24103704 5.11285125,7.79053087 C4.64663875,7.33039506 4.22202625,6.87138271 3.83462625,6.42119753 C4.23080125,5.96025925 4.65573875,5.50108642 5.11171375,5.05041975 C5.57841375,4.59012346 6.04283875,4.17011112 6.49897625,3.78749383 C6.96567625,4.17941975 7.43156375,4.5995926 7.88721375,5.04993827 C8.35358875,5.51039506 8.77852625,5.96860494 9.16560125,6.4195926 M11.5723888,1.06937037 C11.7709638,1.06937037 11.8549763,1.1101358 11.8655388,1.1205679 C11.9203013,1.17433333 12.0613513,1.78148148 11.3824263,3.17825925 C11.0142013,3.93595061 10.4930638,4.74853086 9.85833875,5.57154321 C9.48410125,5.14398766 9.08223875,4.71659259 8.65356375,4.29337037 C8.22553875,3.8712716 7.79263875,3.47420988 7.36055125,3.10475308 C9.14496375,1.76430864 10.7130888,1.06937037 11.5723888,1.06937037 M12.6315638,0.363839506 C11.6924763,-0.564135802 9.18152625,0.341851852 6.50011375,2.40965433 C3.81788875,0.341851852 1.30693875,-0.563654321 0.36850125,0.363839506 C-0.57123625,1.29181481 0.34623875,3.77128395 2.43907625,6.41991358 C0.34672625,9.06870371 -0.57123625,11.5486543 0.36850125,12.4761481 C1.30742625,13.4038025 3.81902625,12.4974939 6.50027625,10.4301728 C9.18152625,12.4974939 11.6926388,13.4038025 12.6317263,12.4761481 C13.5713013,11.5480123 12.6533387,9.06806173 10.5601763,6.41991358 C12.6538263,3.77128395 13.5713013,1.29133334 12.6315638,0.363839506" id="Fill-1"></path>
                </g>
                <path d="M9.16560125,6.41959259 C8.76877625,6.8797284 8.34335125,7.33970371 7.88688875,7.79053086 C7.42132625,8.25098766 6.95673875,8.66987654 6.50060125,9.05249383 C6.03455125,8.66120988 5.56898875,8.24103704 5.11285125,7.79053086 C4.64663875,7.33039506 4.22202625,6.87138271 3.83462625,6.42119753 C4.23080125,5.96025925 4.65573875,5.50108642 5.11171375,5.05041975 C5.57841375,4.59012346 6.04283875,4.17011112 6.49897625,3.78749383 C6.96567625,4.17941975 7.43156375,4.59959259 7.88721375,5.04993827 C8.35358875,5.51039506 8.77852625,5.96860494 9.16560125,6.41959259" id="Path" fill="#59C82A"></path>
            </g>
        </g>
    </g>
</svg>